<svg width="15" height="16" viewBox="0 0 15 16" fill="none" xmlns="http://www.w3.org/2000/svg">
<path d="M10.8098 8.49731L6.12231 13.1848C5.99022 13.3169 5.81107 13.3911 5.62427 13.3911C5.43746 13.3911 5.25831 13.3169 5.12622 13.1848C4.99413 13.0527 4.91992 12.8736 4.91992 12.6868C4.91992 12.5 4.99413 12.3208 5.12622 12.1887L9.31626 7.99985L5.12739 3.80981C5.06199 3.74441 5.01011 3.66676 4.97471 3.58131C4.93931 3.49585 4.92109 3.40426 4.92109 3.31177C4.92109 3.21927 4.93931 3.12768 4.97471 3.04223C5.01011 2.95677 5.06199 2.87912 5.12739 2.81372C5.1928 2.74832 5.27044 2.69643 5.3559 2.66104C5.44135 2.62564 5.53294 2.60742 5.62544 2.60742C5.71793 2.60742 5.80952 2.62564 5.89498 2.66104C5.98043 2.69643 6.05808 2.74832 6.12349 2.81372L10.811 7.50122C10.8765 7.56662 10.9284 7.6443 10.9638 7.72981C10.9992 7.81532 11.0173 7.90697 11.0172 7.99951C11.0171 8.09205 10.9987 8.18366 10.9631 8.26908C10.9275 8.35451 10.8754 8.43207 10.8098 8.49731Z" fill="#393939"/>
</svg>
