<svg width="15" height="15" viewBox="0 0 15 15" fill="none" xmlns="http://www.w3.org/2000/svg">
<path fill-rule="evenodd" clip-rule="evenodd" d="M7.5 15C8.48491 15 9.46018 14.806 10.3701 14.4291C11.2801 14.0522 12.1069 13.4997 12.8033 12.8033C13.4997 12.1069 14.0522 11.2801 14.4291 10.3701C14.806 9.46018 15 8.48491 15 7.5C15 6.51509 14.806 5.53982 14.4291 4.62987C14.0522 3.71993 13.4997 2.89314 12.8033 2.1967C12.1069 1.50026 11.2801 0.947814 10.3701 0.570903C9.46018 0.193993 8.48491 -1.46764e-08 7.5 0C5.51088 2.96403e-08 3.60322 0.790176 2.1967 2.1967C0.790176 3.60322 0 5.51088 0 7.5C0 9.48912 0.790176 11.3968 2.1967 12.8033C3.60322 14.2098 5.51088 15 7.5 15ZM7.30667 10.5333L11.4733 5.53333L10.1933 4.46667L6.61 8.76583L4.75583 6.91083L3.5775 8.08917L6.0775 10.5892L6.7225 11.2342L7.30667 10.5333Z" fill="#4C71F5"/>
</svg>
