<svg width="32" height="32" viewBox="0 0 32 32" fill="none" xmlns="http://www.w3.org/2000/svg">
<path d="M27.5088 22.1175C26.8013 20.9 25.75 17.4662 25.75 13C25.75 10.4141 24.7228 7.93419 22.8943 6.10571C21.0658 4.27723 18.5859 3.25 16 3.25C13.4142 3.25 10.9342 4.27723 9.10574 6.10571C7.27726 7.93419 6.25003 10.4141 6.25003 13C6.25003 17.4675 5.19753 20.9 4.49003 22.1175C4.3348 22.3833 4.25243 22.6854 4.25123 22.9932C4.25004 23.301 4.33006 23.6037 4.48322 23.8707C4.63638 24.1377 4.85726 24.3596 5.12357 24.514C5.38989 24.6684 5.69221 24.7498 6.00003 24.75H11.31C11.4922 25.8618 12.0636 26.8727 12.9223 27.6021C13.7809 28.3315 14.8709 28.732 15.9975 28.732C17.1242 28.732 18.2141 28.3315 19.0728 27.6021C19.9314 26.8727 20.5029 25.8618 20.685 24.75H26C26.3076 24.7494 26.6096 24.6676 26.8756 24.5131C27.1416 24.3585 27.3621 24.1366 27.515 23.8696C27.6678 23.6027 27.7476 23.3002 27.7463 22.9926C27.745 22.685 27.6627 22.3831 27.5075 22.1175H27.5088ZM16 27.25C15.2687 27.2498 14.5588 27.0029 13.9851 26.5492C13.4114 26.0955 13.0076 25.4616 12.8388 24.75H19.1613C18.9925 25.4616 18.5886 26.0955 18.015 26.5492C17.4413 27.0029 16.7314 27.2498 16 27.25ZM26.2138 23.125C26.1932 23.1633 26.1625 23.1952 26.125 23.2172C26.0876 23.2393 26.0447 23.2506 26.0013 23.25H6.00003C5.95656 23.2506 5.91376 23.2393 5.87629 23.2172C5.83882 23.1952 5.80812 23.1633 5.78753 23.125C5.76559 23.087 5.75404 23.0439 5.75404 23C5.75404 22.9561 5.76559 22.913 5.78753 22.875C6.73378 21.25 7.75003 17.4613 7.75003 13C7.75003 10.812 8.61923 8.71354 10.1664 7.16637C11.7136 5.61919 13.812 4.75 16 4.75C18.1881 4.75 20.2865 5.61919 21.8337 7.16637C23.3808 8.71354 24.25 10.812 24.25 13C24.25 17.46 25.2675 21.2437 26.2138 22.875C26.2357 22.913 26.2473 22.9561 26.2473 23C26.2473 23.0439 26.2357 23.087 26.2138 23.125Z" fill="#343330"/>
</svg>
