<svg width="13" height="13" viewBox="0 0 13 13" fill="none" xmlns="http://www.w3.org/2000/svg">
<g clip-path="url(#clip0_2520_4524)">
<path d="M12.9033 3.13641L12.4077 2.07204C12.3463 1.94108 12.2569 1.82527 12.1456 1.73286C12.0344 1.64045 11.9042 1.57372 11.7642 1.53741C10.1896 1.10841 8.38338 0.845977 6.52112 0.813477C4.68577 0.842301 2.86095 1.09718 1.08794 1.57235C0.953875 1.61135 0.719875 1.80798 0.596375 2.06716L0.0983125 3.13723C0.0345117 3.26896 0.00118769 3.41336 0.0008125 3.55973V4.2666L0 4.29991C0 4.61841 0.258375 4.87679 0.576875 4.87679L0.603687 4.87598H2.64956C2.81079 4.87216 2.96412 4.80542 3.07678 4.69002C3.18944 4.57463 3.25248 4.41975 3.25244 4.25848L3.25081 4.21541V3.52479C3.25087 3.4365 3.27307 3.34963 3.31536 3.27213C3.35766 3.19463 3.41871 3.12898 3.49294 3.08116C4.42129 2.58742 5.46979 2.36472 6.51869 2.43848C7.56524 2.36809 8.61078 2.58974 9.53875 3.07873C9.65494 3.15916 9.75163 3.32248 9.75163 3.50854V4.21704C9.74612 4.30006 9.75746 4.38334 9.78495 4.46188C9.81244 4.54041 9.85552 4.61258 9.9116 4.67405C9.96768 4.73552 10.0356 4.78502 10.1113 4.81958C10.187 4.85414 10.2689 4.87305 10.3521 4.87516H12.4004L12.4256 4.87598C12.5786 4.87598 12.7253 4.8152 12.8335 4.70701C12.9417 4.59883 13.0024 4.4521 13.0024 4.2991L13.0016 4.26416V3.55891C13.0013 3.41044 12.9672 3.26398 12.9017 3.13073L12.9033 3.13641Z" fill="#4C71F5"/>
<path d="M9.75 6.74375C9.22121 6.06612 8.93485 5.23078 8.93669 4.37125L8.9375 4.303V4.0625H8.125V4.875H4.875V4.0625H4.0625V4.33062L4.06331 4.39562C4.06448 5.25861 3.77578 6.09697 3.2435 6.77625L0.8125 9.75V12.1875H12.1875V9.75L9.75 6.74375ZM6.5 10.5625C5.85353 10.5625 5.23355 10.3057 4.77643 9.84857C4.31931 9.39145 4.0625 8.77147 4.0625 8.125C4.0625 7.47853 4.31931 6.85855 4.77643 6.40143C5.23355 5.94431 5.85353 5.6875 6.5 5.6875C7.14647 5.6875 7.76645 5.94431 8.22357 6.40143C8.68069 6.85855 8.9375 7.47853 8.9375 8.125C8.9375 8.77147 8.68069 9.39145 8.22357 9.84857C7.76645 10.3057 7.14647 10.5625 6.5 10.5625Z" fill="#4C71F5"/>
<path d="M8.12458 8.12488C8.12948 8.34128 8.09109 8.55648 8.01167 8.75784C7.93225 8.9592 7.8134 9.14267 7.66211 9.29746C7.51081 9.45226 7.33011 9.57527 7.13062 9.65927C6.93113 9.74327 6.71686 9.78657 6.50041 9.78662C6.28395 9.78668 6.06967 9.74348 5.87013 9.65958C5.6706 9.57568 5.48984 9.45276 5.33846 9.29804C5.18709 9.14332 5.06815 8.95992 4.98863 8.7586C4.90911 8.55728 4.87061 8.3421 4.8754 8.1257C4.88479 7.70112 5.06002 7.29708 5.36358 7.00008C5.66714 6.70309 6.07491 6.53673 6.49959 6.53662C6.92428 6.53651 7.33213 6.70267 7.63584 6.99951C7.93955 7.29636 8.11498 7.70031 8.12458 8.12488Z" fill="#4C71F5"/>
</g>
<defs>
<clipPath id="clip0_2520_4524">
<rect width="13" height="13" fill="white"/>
</clipPath>
</defs>
</svg>
