<svg width="48" height="48" viewBox="0 0 48 48" fill="none" xmlns="http://www.w3.org/2000/svg">
<rect x="2" y="2" width="44" height="44" rx="22" fill="#4C71F5" stroke="white" stroke-width="4"/>
<path fill-rule="evenodd" clip-rule="evenodd" d="M20.9447 34H26.0553C29.6444 34 31.4396 34 32.7287 33.1425C33.2851 32.7728 33.7642 32.2955 34.1386 31.7378C35 30.4545 35 28.666 35 25.0914C35 21.5167 35 19.7282 34.1386 18.4449C33.7642 17.8872 33.2851 17.4099 32.7287 17.0402C31.9007 16.4884 30.8634 16.2912 29.2753 16.2212C28.5174 16.2212 27.8654 15.6495 27.717 14.9087C27.6037 14.3661 27.3091 13.8798 26.8831 13.532C26.4571 13.1842 25.9259 12.9963 25.3791 13.0001H21.6209C20.4847 13.0001 19.5061 13.7992 19.283 14.9087C19.1346 15.6495 18.4826 16.2212 17.7247 16.2212C16.1377 16.2912 15.1004 16.4895 14.2712 17.0402C13.7153 17.41 13.2366 17.8873 12.8625 18.4449C12 19.7282 12 21.5155 12 25.0914C12 28.6672 12 30.4533 12.8614 31.7378C13.234 32.2932 13.7123 32.7703 14.2712 33.1425C15.5604 34 17.3555 34 20.9447 34ZM23.5 20.3185C20.8538 20.3185 18.708 22.4547 18.708 25.0902C18.708 27.7257 20.855 29.8653 23.5 29.8653C26.145 29.8653 28.292 27.728 28.292 25.0925C28.292 22.457 26.145 20.3185 23.5 20.3185ZM23.5 22.2272C21.913 22.2272 20.625 23.5094 20.625 25.0914C20.625 26.6722 21.913 27.9543 23.5 27.9543C25.087 27.9543 26.375 26.6722 26.375 25.0914C26.375 23.5105 25.087 22.2272 23.5 22.2272ZM28.9303 21.2729C28.9303 20.7455 29.3592 20.3185 29.8894 20.3185H31.1659C31.6949 20.3185 32.125 20.7455 32.125 21.2729C32.1226 21.5282 32.0203 21.7722 31.8407 21.9511C31.6611 22.1301 31.4188 22.2294 31.167 22.2272H29.8894C29.7647 22.2284 29.6409 22.2047 29.5252 22.1574C29.4095 22.1101 29.3041 22.0402 29.215 21.9516C29.126 21.8629 29.055 21.7574 29.0061 21.6409C28.9573 21.5245 28.9315 21.3994 28.9303 21.2729Z" fill="white"/>
</svg>
