<svg width="28" height="28" viewBox="0 0 28 28" fill="none" xmlns="http://www.w3.org/2000/svg">
<path d="M8.75 19.8332C11.4707 16.9842 16.5002 16.85 19.25 19.8332M16.9108 11.0832C16.9108 12.6932 15.6042 13.9998 13.9907 13.9998C13.6073 14.0005 13.2275 13.9255 12.8731 13.7792C12.5187 13.6329 12.1966 13.4181 11.9253 13.1472C11.6539 12.8763 11.4387 12.5546 11.2918 12.2004C11.1449 11.8462 11.0693 11.4666 11.0693 11.0832C11.0693 9.47317 12.376 8.16651 13.9907 8.16651C14.374 8.16605 14.7536 8.24115 15.1079 8.38752C15.4622 8.53389 15.7841 8.74866 16.0553 9.01954C16.3265 9.29042 16.5417 9.61211 16.6885 9.9662C16.8353 10.3203 16.9108 10.6999 16.9108 11.0832Z" stroke="#CAD1EA" stroke-width="1.5" stroke-linecap="round" stroke-linejoin="round"/>
<circle cx="14" cy="14.0002" r="10.9167" stroke="#CAD1EA" stroke-width="1.5"/>
</svg>
