<svg width="32" height="32" viewBox="0 0 32 32" fill="none" xmlns="http://www.w3.org/2000/svg">
<path d="M20.5587 24.4537C20.6571 24.6046 20.7129 24.7793 20.7202 24.9593C20.7276 25.1392 20.6862 25.3179 20.6004 25.4763C20.5146 25.6346 20.3876 25.7669 20.2328 25.8591C20.0781 25.9513 19.9013 26 19.7212 26H1.27869C1.09856 26 0.921776 25.9513 0.767024 25.8591C0.612272 25.7669 0.485293 25.6346 0.399504 25.4763C0.313715 25.3179 0.272302 25.1392 0.279639 24.9593C0.286975 24.7793 0.34279 24.6046 0.441187 24.4537C1.84882 22.287 3.9193 20.6335 6.34369 19.74C5.00343 18.8477 3.9859 17.5478 3.44156 16.0326C2.89722 14.5173 2.85496 12.867 3.32105 11.3259C3.78714 9.78471 4.73682 8.43445 6.02965 7.47478C7.32249 6.5151 8.88984 5.99695 10.4999 5.99695C12.11 5.99695 13.6774 6.5151 14.9702 7.47478C16.2631 8.43445 17.2127 9.78471 17.6788 11.3259C18.1449 12.867 18.1027 14.5173 17.5583 16.0326C17.014 17.5478 15.9964 18.8477 14.6562 19.74C17.0806 20.6335 19.1511 22.287 20.5587 24.4537ZM31.5474 24.435C30.1394 22.2774 28.0736 20.631 25.6562 19.74C27.2384 18.6742 28.355 17.0455 28.7788 15.1854C29.2025 13.3254 28.9015 11.3737 27.937 9.72777C26.9725 8.08183 25.417 6.86529 23.5871 6.32578C21.7573 5.78627 19.7906 5.96434 18.0874 6.82374C18.0223 6.85737 17.9654 6.9049 17.9207 6.96298C17.8759 7.02105 17.8445 7.08825 17.8287 7.15981C17.8128 7.23137 17.8129 7.30554 17.8289 7.37707C17.8449 7.4486 17.8764 7.51574 17.9212 7.57374C19.1876 9.1535 19.915 11.0973 19.9966 13.1204C20.0783 15.1435 19.51 17.1396 18.3749 18.8162C18.3016 18.9258 18.2745 19.0599 18.2995 19.1894C18.3246 19.3189 18.3997 19.4332 18.5087 19.5075C19.9886 20.5403 21.2554 21.8488 22.2399 23.3612C22.637 23.9693 22.7992 24.7011 22.6962 25.42C22.6846 25.4915 22.6887 25.5647 22.7082 25.6345C22.7276 25.7042 22.7621 25.7689 22.809 25.8241C22.856 25.8793 22.9144 25.9236 22.9801 25.9539C23.0459 25.9843 23.1175 26 23.1899 26H30.7274C30.9476 26.0001 31.1617 25.9274 31.3364 25.7934C31.5111 25.6594 31.6367 25.4714 31.6937 25.2587C31.7285 25.1189 31.7334 24.9732 31.7082 24.8313C31.683 24.6894 31.6282 24.5544 31.5474 24.435Z" fill="#4069FB"/>
</svg>
