<svg width="54" height="20" viewBox="0 0 54 20" fill="none" xmlns="http://www.w3.org/2000/svg">
<path d="M4 0.75H53.25V16C53.25 17.7949 51.7949 19.25 50 19.25H0.75V4C0.75 2.20507 2.20507 0.75 4 0.75Z" fill="#FFC46B"/>
<path d="M4 0.75H53.25V16C53.25 17.7949 51.7949 19.25 50 19.25H0.75V4C0.75 2.20507 2.20507 0.75 4 0.75Z" stroke="white" stroke-width="1.5"/>
<path d="M19.5332 15.0781H18.127V4.40234H19.5332V15.0781ZM18.4668 9.72852H16.6562V8.5332H18.4668V9.72852ZM17.0957 14.5625H15.7246V4.5957H17.0957V14.5625ZM11.3652 11.416C12.1426 11.416 12.8125 11.3984 13.375 11.3633C13.9375 11.3281 14.5117 11.2578 15.0977 11.1523L15.2031 12.3652C14.6055 12.4785 14.0176 12.5566 13.4395 12.5996C12.8613 12.6387 12.1699 12.6602 11.3652 12.6641H10.6152V11.416H11.3652ZM14.5996 6.85156H12.1152V12.0195H10.6152V5.65039H14.5996V6.85156ZM29.5923 15.0781H28.0748V4.40234H29.5923V15.0781ZM26.399 5.52734C26.399 6.67188 26.2447 7.71094 25.9361 8.64453C25.6314 9.57422 25.1138 10.4297 24.3834 11.2109C23.6529 11.9883 22.6744 12.668 21.4478 13.25L20.6627 12.0547C21.69 11.5703 22.5142 11.0254 23.1353 10.4199C23.7564 9.81445 24.2076 9.13477 24.4888 8.38086C24.7701 7.62695 24.9107 6.76367 24.9107 5.79102V5.52734H26.399ZM25.5962 6.70508H21.231V5.52734H25.5962V6.70508ZM39.2516 11.6445H37.7809V9.75195H39.2516V11.6445ZM43.3884 10.4551H33.6618V9.25977H43.3884V10.4551ZM38.5075 11.2227C39.2809 11.2227 39.945 11.2988 40.4997 11.4512C41.0544 11.5996 41.4802 11.8184 41.777 12.1074C42.0739 12.3926 42.2223 12.7422 42.2223 13.1562C42.2223 13.5625 42.0739 13.9082 41.777 14.1934C41.4802 14.4824 41.0544 14.7012 40.4997 14.8496C39.945 15.002 39.2809 15.0781 38.5075 15.0781C37.7302 15.0781 37.0622 15.002 36.5036 14.8496C35.945 14.7012 35.5153 14.4824 35.2145 14.1934C34.9177 13.9082 34.7692 13.5625 34.7692 13.1562C34.7692 12.7422 34.9177 12.3926 35.2145 12.1074C35.5114 11.8184 35.9391 11.5996 36.4977 11.4512C37.0602 11.2988 37.7302 11.2227 38.5075 11.2227ZM38.5075 12.3477C38.0114 12.3477 37.5993 12.3789 37.2712 12.4414C36.947 12.5039 36.7028 12.5938 36.5387 12.7109C36.3747 12.8281 36.2927 12.9766 36.2927 13.1562C36.2927 13.3242 36.3747 13.4688 36.5387 13.5898C36.7028 13.7109 36.9489 13.8027 37.277 13.8652C37.6052 13.9238 38.0153 13.9531 38.5075 13.9531C38.988 13.9531 39.3942 13.9219 39.7262 13.8594C40.0583 13.793 40.3063 13.7012 40.4704 13.584C40.6345 13.4668 40.7165 13.3242 40.7165 13.1562C40.7165 12.9766 40.6345 12.8281 40.4704 12.7109C40.3063 12.5938 40.0602 12.5039 39.7321 12.4414C39.4079 12.3789 38.9997 12.3477 38.5075 12.3477ZM38.8122 5.68555C38.8122 6.22461 38.6481 6.71875 38.32 7.16797C37.9919 7.61719 37.5114 7.99023 36.8786 8.28711C36.2458 8.58008 35.4802 8.76953 34.5817 8.85547L34.0895 7.67773C34.8239 7.61133 35.447 7.47656 35.9587 7.27344C36.4743 7.07031 36.8591 6.82812 37.113 6.54688C37.3669 6.26562 37.4938 5.97852 37.4938 5.68555V5.4043H38.8122V5.68555ZM39.5387 5.68555C39.5387 5.98242 39.6637 6.27148 39.9137 6.55273C40.1677 6.83008 40.5524 7.07031 41.068 7.27344C41.5837 7.47656 42.2184 7.61133 42.9723 7.67773L42.445 8.85547C41.5583 8.76953 40.7946 8.58008 40.154 8.28711C39.5173 7.99023 39.0309 7.61914 38.695 7.17383C38.363 6.72461 38.197 6.22852 38.197 5.68555V5.4043H39.5387V5.68555ZM42.5095 6.04297H34.5407V4.86523H42.5095V6.04297Z" fill="white"/>
</svg>
