<svg width="20" height="20" viewBox="0 0 20 20" fill="none" xmlns="http://www.w3.org/2000/svg">
<path d="M9.99935 2.5V17.5C7.08268 17.5 4.9156 13.6833 4.9156 13.6833H2.49935C2.27834 13.6833 2.06637 13.5955 1.91009 13.4393C1.75381 13.283 1.66602 13.071 1.66602 12.85V7.0875C1.66602 6.86649 1.75381 6.65452 1.91009 6.49824C2.06637 6.34196 2.27834 6.25417 2.49935 6.25417H4.9156C4.9156 6.25417 7.08268 2.5 9.99935 2.5Z" fill="#DFE6FF" stroke="#4C71F5" stroke-width="2" stroke-linejoin="round"/>
<path d="M13.332 6.25C13.5923 6.48297 13.8275 6.74259 14.0337 7.02458C14.6635 7.8886 15.0015 8.93083 14.9987 10C14.9987 11.1058 14.6462 12.1279 14.0495 12.9542C13.8396 13.2444 13.599 13.5112 13.332 13.75" stroke="#4C71F5" stroke-width="2" stroke-linecap="round" stroke-linejoin="round"/>
<path d="M14.2637 17.1607C16.7003 15.7065 18.332 13.0436 18.332 9.99987C18.332 7.0032 16.7503 4.37654 14.3766 2.9082" stroke="#4C71F5" stroke-width="2" stroke-linecap="round"/>
</svg>
