<svg width="36" height="36" viewBox="0 0 36 36" fill="none" xmlns="http://www.w3.org/2000/svg">
<path d="M18 19.6875V10.6875V19.6875ZM32.625 18C32.625 21.8788 31.0842 25.5987 28.3414 28.3414C25.5987 31.0842 21.8788 32.625 18 32.625C14.1212 32.625 10.4013 31.0842 7.65856 28.3414C4.91584 25.5987 3.375 21.8788 3.375 18C3.375 14.1212 4.91584 10.4013 7.65856 7.65856C10.4013 4.91584 14.1212 3.375 18 3.375C21.8788 3.375 25.5987 4.91584 28.3414 7.65856C31.0842 10.4013 32.625 14.1212 32.625 18Z" fill="white"/>
<path d="M18 19.6875V10.6875M32.625 18C32.625 21.8788 31.0842 25.5987 28.3414 28.3414C25.5987 31.0842 21.8788 32.625 18 32.625C14.1212 32.625 10.4013 31.0842 7.65856 28.3414C4.91584 25.5987 3.375 21.8788 3.375 18C3.375 14.1212 4.91584 10.4013 7.65856 7.65856C10.4013 4.91584 14.1212 3.375 18 3.375C21.8788 3.375 25.5987 4.91584 28.3414 7.65856C31.0842 10.4013 32.625 14.1212 32.625 18Z" stroke="#BCC7DD" stroke-width="3" stroke-linecap="round" stroke-linejoin="round"/>
<path d="M19.125 24.75C19.125 25.0484 19.0065 25.3345 18.7955 25.5455C18.5845 25.7565 18.2984 25.875 18 25.875C17.7016 25.875 17.4155 25.7565 17.2045 25.5455C16.9935 25.3345 16.875 25.0484 16.875 24.75C16.875 24.4516 16.9935 24.1655 17.2045 23.9545C17.4155 23.7435 17.7016 23.625 18 23.625C18.2984 23.625 18.5845 23.7435 18.7955 23.9545C19.0065 24.1655 19.125 24.4516 19.125 24.75Z" fill="#BCC7DD" stroke="#BCC7DD"/>
</svg>
