<svg width="32" height="32" viewBox="0 0 32 32" fill="none" xmlns="http://www.w3.org/2000/svg">
<path d="M27.0001 16.27C27.0051 16.09 27.0051 15.91 27.0001 15.73L28.8651 13.4C28.9628 13.2777 29.0305 13.1341 29.0627 12.9808C29.0948 12.8275 29.0905 12.6688 29.0501 12.5175C28.7438 11.3684 28.2865 10.2651 27.6901 9.23625C27.6119 9.10164 27.5034 8.98714 27.3732 8.90186C27.243 8.81658 27.0947 8.76286 26.9401 8.745L23.9751 8.415C23.8517 8.285 23.7267 8.16 23.6001 8.04L23.2501 5.0675C23.2321 4.91276 23.1782 4.76437 23.0926 4.63416C23.0071 4.50395 22.8924 4.39551 22.7576 4.3175C21.7288 3.72156 20.6254 3.26506 19.4763 2.96C19.325 2.91957 19.1663 2.91525 19.013 2.94738C18.8597 2.97952 18.7161 3.04721 18.5938 3.145L16.2701 5C16.0901 5 15.9101 5 15.7301 5L13.4001 3.13875C13.2777 3.04096 13.1341 2.97327 12.9808 2.94114C12.8276 2.909 12.6689 2.91332 12.5176 2.95375C11.3685 3.26003 10.2651 3.71735 9.23631 4.31375C9.1017 4.3919 8.9872 4.5004 8.90192 4.63061C8.81664 4.76081 8.76292 4.90913 8.74506 5.06375L8.41506 8.03375C8.28506 8.15791 8.16006 8.28291 8.04006 8.40875L5.06756 8.75C4.91282 8.768 4.76443 8.8219 4.63422 8.90741C4.50401 8.99291 4.39557 9.10766 4.31756 9.2425C3.72174 10.2715 3.26485 11.3748 2.95881 12.5237C2.91855 12.6752 2.91444 12.8339 2.94679 12.9872C2.97914 13.1405 3.04705 13.284 3.14506 13.4062L5.00006 15.73C5.00006 15.91 5.00006 16.09 5.00006 16.27L3.13881 18.6C3.04102 18.7223 2.97333 18.8659 2.9412 19.0192C2.90906 19.1725 2.91338 19.3312 2.95381 19.4825C3.26009 20.6316 3.71741 21.7349 4.31381 22.7637C4.39196 22.8983 4.50046 23.0128 4.63067 23.0981C4.76087 23.1834 4.90919 23.2371 5.06381 23.255L8.02881 23.585C8.15297 23.715 8.27797 23.84 8.40381 23.96L8.75006 26.9325C8.76806 27.0872 8.82196 27.2356 8.90747 27.3658C8.99298 27.496 9.10772 27.6045 9.24256 27.6825C10.2715 28.2783 11.3749 28.7352 12.5238 29.0412C12.6752 29.0815 12.834 29.0856 12.9872 29.0533C13.1405 29.0209 13.2841 28.953 13.4063 28.855L15.7301 27C15.9101 27.005 16.0901 27.005 16.2701 27L18.6001 28.865C18.7224 28.9628 18.866 29.0305 19.0193 29.0626C19.1726 29.0947 19.3312 29.0904 19.4826 29.05C20.6318 28.7443 21.7352 28.2869 22.7638 27.69C22.8984 27.6118 23.0129 27.5033 23.0982 27.3731C23.1835 27.2429 23.2372 27.0946 23.2551 26.94L23.5851 23.975C23.7151 23.8517 23.8401 23.7267 23.9601 23.6L26.9326 23.25C27.0873 23.232 27.2357 23.1781 27.3659 23.0926C27.4961 23.0071 27.6045 22.8923 27.6826 22.7575C28.2784 21.7285 28.7353 20.6252 29.0413 19.4762C29.0816 19.3248 29.0857 19.1661 29.0533 19.0128C29.021 18.8595 28.9531 18.716 28.8551 18.5937L27.0001 16.27ZM16.0001 21C15.0112 21 14.0445 20.7068 13.2222 20.1573C12.4 19.6079 11.7591 18.827 11.3807 17.9134C11.0022 16.9998 10.9032 15.9944 11.0961 15.0245C11.2891 14.0546 11.7653 13.1637 12.4645 12.4645C13.1638 11.7652 14.0547 11.289 15.0246 11.0961C15.9945 10.9031 16.9998 11.0022 17.9135 11.3806C18.8271 11.759 19.608 12.3999 20.1574 13.2221C20.7068 14.0444 21.0001 15.0111 21.0001 16C21.0001 17.3261 20.4733 18.5978 19.5356 19.5355C18.5979 20.4732 17.3261 21 16.0001 21Z" fill="#343330"/>
</svg>
