<svg width="24" height="24" viewBox="0 0 24 24" fill="none" xmlns="http://www.w3.org/2000/svg">
<path fill-rule="evenodd" clip-rule="evenodd" d="M10.4993 2C11.0793 2 11.6493 2.058 12.1983 2.17C12.4582 2.22278 12.6865 2.37664 12.833 2.59775C12.9794 2.81885 13.0321 3.08909 12.9793 3.349C12.9265 3.60891 12.7726 3.83721 12.5515 3.98368C12.3304 4.13014 12.0602 4.18278 11.8003 4.13C10.5408 3.87306 9.23335 3.99534 8.04333 4.48139C6.85331 4.96743 5.83412 5.7954 5.11463 6.86063C4.39513 7.92586 4.00763 9.1805 4.00113 10.4659C3.99462 11.7514 4.3694 13.0099 5.07808 14.0823C5.78676 15.1548 6.79752 15.993 7.98255 16.4911C9.16759 16.9892 10.4737 17.1247 11.7358 16.8805C12.9978 16.6363 14.1591 16.0234 15.0729 15.1193C15.9866 14.2151 16.6118 13.0604 16.8693 11.801C16.8954 11.6723 16.9466 11.55 17.02 11.4411C17.0934 11.3322 17.1875 11.2388 17.297 11.1663C17.4065 11.0938 17.5292 11.0435 17.6581 11.0184C17.787 10.9933 17.9196 10.9939 18.0483 11.02C18.177 11.0461 18.2993 11.0974 18.4082 11.1708C18.5171 11.2441 18.6104 11.3383 18.683 11.4477C18.7555 11.5572 18.8057 11.6799 18.8308 11.8088C18.8559 11.9377 18.8554 12.0703 18.8293 12.199C18.5857 13.3916 18.0888 14.518 17.3723 15.502L17.1753 15.762L20.8273 19.414C21.0085 19.5935 21.1143 19.8356 21.123 20.0905C21.1316 20.3455 21.0425 20.5942 20.8738 20.7856C20.7051 20.977 20.4697 21.0967 20.2157 21.1202C19.9616 21.1437 19.7082 21.0692 19.5073 20.912L19.4133 20.828L15.7613 17.176C14.6967 18.015 13.447 18.5872 12.1163 18.8449C10.7856 19.1026 9.4126 19.0384 8.11179 18.6576C6.81098 18.2768 5.6201 17.5904 4.63851 16.6557C3.65692 15.7211 2.91308 14.5652 2.46906 13.2846C2.02503 12.004 1.89368 10.6357 2.08599 9.29404C2.27829 7.95235 2.78866 6.67609 3.57451 5.57175C4.36037 4.46742 5.39893 3.56702 6.60353 2.94569C7.80814 2.32436 9.14387 2.00012 10.4993 2Z" fill="#3082F4"/>
<path fill-rule="evenodd" clip-rule="evenodd" d="M16.8575 1.71436C17.0446 1.71436 17.2279 1.76683 17.3867 1.86583C17.5454 1.96482 17.6732 2.10636 17.7555 2.27436L17.8035 2.39136L17.9335 2.76936C18.0707 3.17154 18.2918 3.53999 18.5821 3.8503C18.8724 4.16061 19.2254 4.40571 19.6175 4.56936L19.8025 4.63936L20.1805 4.76836C20.3677 4.83222 20.5318 4.95015 20.6519 5.10725C20.7721 5.26435 20.843 5.45355 20.8556 5.65093C20.8682 5.84831 20.8221 6.04501 20.7229 6.21614C20.6237 6.38727 20.4761 6.52515 20.2985 6.61235L20.1805 6.66036L19.8025 6.79036C19.4004 6.92756 19.0319 7.14863 18.7216 7.43895C18.4113 7.72926 18.1662 8.08219 18.0025 8.47436L17.9325 8.65935L17.8035 9.03735C17.7396 9.22449 17.6215 9.38846 17.4644 9.50852C17.3072 9.62858 17.118 9.69935 16.9206 9.71187C16.7232 9.72439 16.5266 9.67811 16.3555 9.57887C16.1845 9.47964 16.0466 9.3319 15.9595 9.15435L15.9115 9.03735L15.7815 8.65935C15.6443 8.25717 15.4233 7.88872 15.1329 7.57841C14.8426 7.2681 14.4897 7.023 14.0975 6.85935L13.9125 6.78935L13.5345 6.66036C13.3473 6.59649 13.1833 6.47856 13.0631 6.32146C12.943 6.16436 12.8721 5.97516 12.8595 5.77778C12.8468 5.5804 12.893 5.3837 12.9922 5.21257C13.0913 5.04144 13.239 4.90356 13.4165 4.81636L13.5345 4.76836L13.9125 4.63836C14.3147 4.50115 14.6832 4.28008 14.9935 3.98976C15.3038 3.69945 15.5489 3.34652 15.7125 2.95436L15.7825 2.76936L15.9115 2.39136C15.9789 2.19394 16.1063 2.02254 16.276 1.90114C16.4456 1.77975 16.6489 1.71444 16.8575 1.71436ZM16.0535 5.71435C16.3512 5.4778 16.621 5.20805 16.8575 4.91036C17.0941 5.20805 17.3638 5.4778 17.6615 5.71435C17.3622 5.95169 17.0942 6.21969 16.8575 6.51835C16.6202 6.21902 16.3522 5.95102 16.0535 5.71435Z" fill="#FFAAA7"/>
</svg>
