<svg width="15" height="16" viewBox="0 0 15 16" fill="none" xmlns="http://www.w3.org/2000/svg">
<path d="M9.87233 12.1897C10.0044 12.3218 10.0786 12.5009 10.0786 12.6877C10.0786 12.8745 10.0044 13.0537 9.87233 13.1858C9.74024 13.3179 9.56109 13.3921 9.37429 13.3921C9.18748 13.3921 9.00833 13.3179 8.87624 13.1858L4.18874 8.49829C4.12319 8.43297 4.07118 8.35535 4.03569 8.26988C4.0002 8.18441 3.98193 8.09278 3.98193 8.00024C3.98193 7.9077 4.0002 7.81607 4.03569 7.7306C4.07118 7.64514 4.12319 7.56752 4.18874 7.5022L8.87624 2.8147C9.00833 2.68261 9.18748 2.6084 9.37429 2.6084C9.56109 2.6084 9.74024 2.68261 9.87233 2.8147C10.0044 2.94679 10.0786 3.12594 10.0786 3.31274C10.0786 3.49955 10.0044 3.6787 9.87233 3.81079L5.68346 7.99966L9.87233 12.1897Z" fill="#393939"/>
</svg>
