<svg width="36" height="36" viewBox="0 0 36 36" fill="none" xmlns="http://www.w3.org/2000/svg">
<path d="M25.7 18.56C26.5752 18.56 27.4146 18.914 28.0335 19.5441C28.6523 20.1742 29 21.0289 29 21.92V23.04C29 27.455 24.908 32 18 32C11.092 32 7 27.455 7 23.04V21.92C7 21.0289 7.34768 20.1742 7.96655 19.5441C8.58542 18.914 9.42479 18.56 10.3 18.56H25.7ZM25.7 20.8H10.3C10.0083 20.8 9.72847 20.918 9.52218 21.128C9.31589 21.3381 9.2 21.623 9.2 21.92V23.04C9.2 26.2611 12.3504 29.76 18 29.76C23.6496 29.76 26.8 26.2611 26.8 23.04V21.92C26.8 21.623 26.6841 21.3381 26.4778 21.128C26.2715 20.918 25.9917 20.8 25.7 20.8ZM18 4C19.6046 4 21.1434 4.649 22.278 5.80422C23.4126 6.95945 24.05 8.52627 24.05 10.16C24.05 11.7937 23.4126 13.3606 22.278 14.5158C21.1434 15.671 19.6046 16.32 18 16.32C16.3954 16.32 14.8566 15.671 13.722 14.5158C12.5874 13.3606 11.95 11.7937 11.95 10.16C11.95 8.52627 12.5874 6.95945 13.722 5.80422C14.8566 4.649 16.3954 4 18 4ZM18 6.24C16.9789 6.24 15.9997 6.653 15.2776 7.38814C14.5556 8.12328 14.15 9.12035 14.15 10.16C14.15 11.1996 14.5556 12.1967 15.2776 12.9319C15.9997 13.667 16.9789 14.08 18 14.08C19.0211 14.08 20.0003 13.667 20.7224 12.9319C21.4444 12.1967 21.85 11.1996 21.85 10.16C21.85 9.12035 21.4444 8.12328 20.7224 7.38814C20.0003 6.653 19.0211 6.24 18 6.24Z" fill="#BCC7DD"/>
<path d="M25.7 20.8H10.3C10.0083 20.8 9.72847 20.918 9.52218 21.128C9.31589 21.3381 9.2 21.623 9.2 21.92V23.04C9.2 26.2611 12.3504 29.76 18 29.76C23.6496 29.76 26.8 26.2611 26.8 23.04V21.92C26.8 21.623 26.6841 21.3381 26.4778 21.128C26.2715 20.918 25.9917 20.8 25.7 20.8Z" fill="#BCC7DD"/>
<path d="M18 6.24C16.9789 6.24 15.9997 6.653 15.2776 7.38814C14.5556 8.12328 14.15 9.12035 14.15 10.16C14.15 11.1996 14.5556 12.1967 15.2776 12.9319C15.9997 13.667 16.9789 14.08 18 14.08C19.0211 14.08 20.0003 13.667 20.7224 12.9319C21.4444 12.1967 21.85 11.1996 21.85 10.16C21.85 9.12035 21.4444 8.12328 20.7224 7.38814C20.0003 6.653 19.0211 6.24 18 6.24Z" fill="#BCC7DD"/>
</svg>
