<svg width="24" height="24" viewBox="0 0 24 24" fill="none" xmlns="http://www.w3.org/2000/svg">
<path fill-rule="evenodd" clip-rule="evenodd" d="M11 17C11.7879 17 12.5681 16.8448 13.2961 16.5433C14.0241 16.2417 14.6855 15.7998 15.2426 15.2426C15.7998 14.6855 16.2417 14.0241 16.5433 13.2961C16.8448 12.5681 17 11.7879 17 11C17 10.2121 16.8448 9.43185 16.5433 8.7039C16.2417 7.97595 15.7998 7.31451 15.2426 6.75736C14.6855 6.20021 14.0241 5.75825 13.2961 5.45672C12.5681 5.15519 11.7879 5 11 5C9.4087 5 7.88258 5.63214 6.75736 6.75736C5.63214 7.88258 5 9.4087 5 11C5 12.5913 5.63214 14.1174 6.75736 15.2426C7.88258 16.3679 9.4087 17 11 17ZM11 19C13.1217 19 15.1566 18.1571 16.6569 16.6569C18.1571 15.1566 19 13.1217 19 11C19 8.87827 18.1571 6.84344 16.6569 5.34315C15.1566 3.84285 13.1217 3 11 3C8.87827 3 6.84344 3.84285 5.34315 5.34315C3.84285 6.84344 3 8.87827 3 11C3 13.1217 3.84285 15.1566 5.34315 16.6569C6.84344 18.1571 8.87827 19 11 19Z" fill="#313946"/>
<path fill-rule="evenodd" clip-rule="evenodd" d="M15.3202 15.2901C15.5084 15.1032 15.7631 14.9988 16.0282 14.9998C16.2934 15.0007 16.5473 15.1069 16.7342 15.2951L20.7092 19.2951C20.8909 19.4842 20.991 19.7371 20.988 19.9993C20.985 20.2615 20.8792 20.5121 20.6932 20.697C20.5072 20.8819 20.2561 20.9864 19.9938 20.9879C19.7316 20.9894 19.4793 20.8878 19.2912 20.7051L15.3162 16.7051C15.1292 16.517 15.0246 16.2624 15.0254 15.9972C15.0261 15.7321 15.1322 15.478 15.3202 15.2911V15.2901Z" fill="black"/>
</svg>
