<svg width="32" height="32" viewBox="0 0 32 32" fill="none" xmlns="http://www.w3.org/2000/svg">
<mask id="mask0_330_1536" style="mask-type:alpha" maskUnits="userSpaceOnUse" x="4" y="4" width="24" height="24">
<rect x="4" y="4" width="24" height="24" fill="#D9D9D9"/>
</mask>
<g mask="url(#mask0_330_1536)">
<path d="M13.5 20C11.6833 20 10.1458 19.3708 8.8875 18.1125C7.62917 16.8542 7 15.3167 7 13.5C7 11.6833 7.62917 10.1458 8.8875 8.8875C10.1458 7.62917 11.6833 7 13.5 7C15.3167 7 16.8542 7.62917 18.1125 8.8875C19.3708 10.1458 20 11.6833 20 13.5C20 14.2333 19.8833 14.925 19.65 15.575C19.4167 16.225 19.1 16.8 18.7 17.3L24.3 22.9C24.4833 23.0833 24.575 23.3167 24.575 23.6C24.575 23.8833 24.4833 24.1167 24.3 24.3C24.1167 24.4833 23.8833 24.575 23.6 24.575C23.3167 24.575 23.0833 24.4833 22.9 24.3L17.3 18.7C16.8 19.1 16.225 19.4167 15.575 19.65C14.925 19.8833 14.2333 20 13.5 20ZM13.5 18C14.75 18 15.8125 17.5625 16.6875 16.6875C17.5625 15.8125 18 14.75 18 13.5C18 12.25 17.5625 11.1875 16.6875 10.3125C15.8125 9.4375 14.75 9 13.5 9C12.25 9 11.1875 9.4375 10.3125 10.3125C9.4375 11.1875 9 12.25 9 13.5C9 14.75 9.4375 15.8125 10.3125 16.6875C11.1875 17.5625 12.25 18 13.5 18Z" fill="#99999A"/>
</g>
</svg>
