<svg width="32" height="32" viewBox="0 0 32 32" fill="none" xmlns="http://www.w3.org/2000/svg">
<path d="M17.75 22C17.75 22.1989 17.671 22.3897 17.5303 22.5303C17.3897 22.671 17.1989 22.75 17 22.75C16.5359 22.75 16.0908 22.5656 15.7626 22.2374C15.4344 21.9092 15.25 21.4641 15.25 21V16C15.25 15.9337 15.2237 15.8701 15.1768 15.8232C15.1299 15.7763 15.0663 15.75 15 15.75C14.8011 15.75 14.6103 15.671 14.4697 15.5303C14.329 15.3897 14.25 15.1989 14.25 15C14.25 14.8011 14.329 14.6103 14.4697 14.4697C14.6103 14.329 14.8011 14.25 15 14.25C15.4641 14.25 15.9093 14.4344 16.2374 14.7626C16.5656 15.0908 16.75 15.5359 16.75 16V21C16.75 21.0663 16.7763 21.1299 16.8232 21.1768C16.8701 21.2237 16.9337 21.25 17 21.25C17.1989 21.25 17.3897 21.329 17.5303 21.4697C17.671 21.6103 17.75 21.8011 17.75 22ZM15.5 11.75C15.7472 11.75 15.9889 11.6767 16.1945 11.5393C16.4 11.402 16.5602 11.2068 16.6549 10.9784C16.7495 10.7499 16.7742 10.4986 16.726 10.2561C16.6778 10.0137 16.5587 9.79093 16.3839 9.61612C16.2091 9.4413 15.9863 9.32225 15.7439 9.27402C15.5014 9.22579 15.2501 9.25054 15.0217 9.34515C14.7932 9.43976 14.598 9.59998 14.4607 9.80554C14.3233 10.0111 14.25 10.2528 14.25 10.5C14.25 10.8315 14.3817 11.1495 14.6161 11.3839C14.8505 11.6183 15.1685 11.75 15.5 11.75ZM28.75 16C28.75 18.5217 28.0022 20.9868 26.6012 23.0835C25.2003 25.1802 23.209 26.8144 20.8792 27.7795C18.5495 28.7445 15.9859 28.997 13.5126 28.505C11.0393 28.0131 8.76751 26.7987 6.98439 25.0156C5.20127 23.2325 3.98696 20.9607 3.49499 18.4874C3.00303 16.0141 3.25552 13.4505 4.22054 11.1208C5.18556 8.79103 6.81976 6.79975 8.91648 5.39876C11.0132 3.99777 13.4783 3.25 16 3.25C19.3803 3.25397 22.621 4.59854 25.0112 6.98877C27.4015 9.379 28.746 12.6197 28.75 16ZM27.25 16C27.25 13.775 26.5902 11.5999 25.354 9.74984C24.1179 7.89978 22.3609 6.45784 20.3052 5.60636C18.2495 4.75487 15.9875 4.53208 13.8052 4.96617C11.623 5.40025 9.6184 6.47171 8.04505 8.04505C6.47171 9.61839 5.40025 11.6229 4.96617 13.8052C4.53209 15.9875 4.75488 18.2495 5.60636 20.3052C6.45785 22.3609 7.89979 24.1179 9.74984 25.354C11.5999 26.5902 13.775 27.25 16 27.25C18.9827 27.2467 21.8422 26.0604 23.9513 23.9513C26.0604 21.8422 27.2467 18.9827 27.25 16Z" fill="#343330"/>
</svg>
