<svg width="32" height="32" viewBox="0 0 32 32" fill="none" xmlns="http://www.w3.org/2000/svg">
<path opacity="0.2" d="M24 14C24 15.9778 23.4135 17.9112 22.3147 19.5557C21.2159 21.2002 19.6541 22.4819 17.8268 23.2388C15.9996 23.9957 13.9889 24.1937 12.0491 23.8079C10.1093 23.422 8.32746 22.4696 6.92894 21.0711C5.53041 19.6725 4.578 17.8907 4.19215 15.9509C3.8063 14.0111 4.00433 12.0004 4.76121 10.1732C5.51809 8.3459 6.79981 6.78412 8.4443 5.6853C10.0888 4.58649 12.0222 4 14 4C15.3132 4 16.6136 4.25866 17.8268 4.7612C19.0401 5.26375 20.1425 6.00035 21.0711 6.92893C21.9997 7.85752 22.7363 8.95991 23.2388 10.1732C23.7413 11.3864 24 12.6868 24 14Z" fill="#343330"/>
<path d="M28.7075 27.2924L22.45 21.0349C24.2672 18.8554 25.1742 16.0593 24.9823 13.2281C24.7904 10.3969 23.5144 7.7487 21.4197 5.83439C19.3249 3.92009 16.5728 2.88707 13.7359 2.95025C10.8989 3.01342 8.19547 4.16793 6.18804 6.17358C4.18061 8.17924 3.02372 10.8816 2.95804 13.7185C2.89235 16.5555 3.92294 19.3085 5.83539 21.4049C7.74785 23.5013 10.3949 24.7797 13.2259 24.9741C16.0569 25.1685 18.8539 24.264 21.035 22.4487L27.2925 28.7074C27.3854 28.8003 27.4957 28.874 27.6171 28.9243C27.7385 28.9746 27.8686 29.0005 28 29.0005C28.1314 29.0005 28.2615 28.9746 28.3829 28.9243C28.5043 28.874 28.6146 28.8003 28.7075 28.7074C28.8004 28.6145 28.8741 28.5042 28.9244 28.3828C28.9747 28.2614 29.0006 28.1313 29.0006 27.9999C29.0006 27.8685 28.9747 27.7384 28.9244 27.617C28.8741 27.4956 28.8004 27.3853 28.7075 27.2924ZM5 13.9999C5 12.2199 5.52784 10.4798 6.51677 8.99978C7.5057 7.51974 8.91131 6.36619 10.5558 5.685C12.2004 5.00381 14.01 4.82558 15.7558 5.17285C17.5016 5.52012 19.1053 6.37728 20.364 7.63595C21.6226 8.89463 22.4798 10.4983 22.8271 12.2441C23.1743 13.9899 22.9961 15.7995 22.3149 17.4441C21.6337 19.0886 20.4802 20.4942 19.0001 21.4831C17.5201 22.4721 15.78 22.9999 14 22.9999C11.6139 22.9973 9.32621 22.0482 7.63896 20.361C5.95171 18.6737 5.00264 16.3861 5 13.9999Z" fill="#343330"/>
</svg>
