<svg width="32" height="32" viewBox="0 0 32 32" fill="none" xmlns="http://www.w3.org/2000/svg">
<path d="M26 4H23V3C23 2.73478 22.8946 2.48043 22.7071 2.29289C22.5196 2.10536 22.2652 2 22 2C21.7348 2 21.4804 2.10536 21.2929 2.29289C21.1054 2.48043 21 2.73478 21 3V4H11V3C11 2.73478 10.8946 2.48043 10.7071 2.29289C10.5196 2.10536 10.2652 2 10 2C9.73478 2 9.48043 2.10536 9.29289 2.29289C9.10536 2.48043 9 2.73478 9 3V4H6C5.46957 4 4.96086 4.21071 4.58579 4.58579C4.21071 4.96086 4 5.46957 4 6V26C4 26.5304 4.21071 27.0391 4.58579 27.4142C4.96086 27.7893 5.46957 28 6 28H26C26.5304 28 27.0391 27.7893 27.4142 27.4142C27.7893 27.0391 28 26.5304 28 26V6C28 5.46957 27.7893 4.96086 27.4142 4.58579C27.0391 4.21071 26.5304 4 26 4ZM10.5 23C10.2033 23 9.91332 22.912 9.66665 22.7472C9.41997 22.5824 9.22771 22.3481 9.11418 22.074C9.00065 21.7999 8.97094 21.4983 9.02882 21.2074C9.0867 20.9164 9.22956 20.6491 9.43934 20.4393C9.64912 20.2296 9.91639 20.0867 10.2074 20.0288C10.4983 19.9709 10.7999 20.0007 11.074 20.1142C11.3481 20.2277 11.5824 20.42 11.7472 20.6666C11.912 20.9133 12 21.2033 12 21.5C12 21.8978 11.842 22.2794 11.5607 22.5607C11.2794 22.842 10.8978 23 10.5 23ZM16 23C15.7033 23 15.4133 22.912 15.1666 22.7472C14.92 22.5824 14.7277 22.3481 14.6142 22.074C14.5006 21.7999 14.4709 21.4983 14.5288 21.2074C14.5867 20.9164 14.7296 20.6491 14.9393 20.4393C15.1491 20.2296 15.4164 20.0867 15.7074 20.0288C15.9983 19.9709 16.2999 20.0007 16.574 20.1142C16.8481 20.2277 17.0824 20.42 17.2472 20.6666C17.412 20.9133 17.5 21.2033 17.5 21.5C17.5 21.8978 17.342 22.2794 17.0607 22.5607C16.7794 22.842 16.3978 23 16 23ZM16 18C15.7033 18 15.4133 17.912 15.1666 17.7472C14.92 17.5824 14.7277 17.3481 14.6142 17.074C14.5006 16.7999 14.4709 16.4983 14.5288 16.2074C14.5867 15.9164 14.7296 15.6491 14.9393 15.4393C15.1491 15.2296 15.4164 15.0867 15.7074 15.0288C15.9983 14.9709 16.2999 15.0006 16.574 15.1142C16.8481 15.2277 17.0824 15.42 17.2472 15.6666C17.412 15.9133 17.5 16.2033 17.5 16.5C17.5 16.8978 17.342 17.2794 17.0607 17.5607C16.7794 17.842 16.3978 18 16 18ZM21.5 23C21.2033 23 20.9133 22.912 20.6666 22.7472C20.42 22.5824 20.2277 22.3481 20.1142 22.074C20.0007 21.7999 19.9709 21.4983 20.0288 21.2074C20.0867 20.9164 20.2296 20.6491 20.4393 20.4393C20.6491 20.2296 20.9164 20.0867 21.2074 20.0288C21.4983 19.9709 21.7999 20.0007 22.074 20.1142C22.3481 20.2277 22.5824 20.42 22.7472 20.6666C22.912 20.9133 23 21.2033 23 21.5C23 21.8978 22.842 22.2794 22.5607 22.5607C22.2794 22.842 21.8978 23 21.5 23ZM21.5 18C21.2033 18 20.9133 17.912 20.6666 17.7472C20.42 17.5824 20.2277 17.3481 20.1142 17.074C20.0007 16.7999 19.9709 16.4983 20.0288 16.2074C20.0867 15.9164 20.2296 15.6491 20.4393 15.4393C20.6491 15.2296 20.9164 15.0867 21.2074 15.0288C21.4983 14.9709 21.7999 15.0006 22.074 15.1142C22.3481 15.2277 22.5824 15.42 22.7472 15.6666C22.912 15.9133 23 16.2033 23 16.5C23 16.8978 22.842 17.2794 22.5607 17.5607C22.2794 17.842 21.8978 18 21.5 18ZM26 10H6V6H9V7C9 7.26522 9.10536 7.51957 9.29289 7.70711C9.48043 7.89464 9.73478 8 10 8C10.2652 8 10.5196 7.89464 10.7071 7.70711C10.8946 7.51957 11 7.26522 11 7V6H21V7C21 7.26522 21.1054 7.51957 21.2929 7.70711C21.4804 7.89464 21.7348 8 22 8C22.2652 8 22.5196 7.89464 22.7071 7.70711C22.8946 7.51957 23 7.26522 23 7V6H26V10Z" fill="#343330"/>
</svg>
