<svg width="80" height="80" viewBox="0 0 80 80" fill="none" xmlns="http://www.w3.org/2000/svg">
<path d="M40 0C32.0888 0 24.3552 2.34596 17.7772 6.74121C11.1992 11.1365 6.07234 17.3836 3.04484 24.6927C0.0173314 32.0017 -0.774802 40.0444 0.768607 47.8036C2.31202 55.5628 6.12164 62.6902 11.7157 68.2843C17.3098 73.8784 24.4372 77.688 32.1964 79.2314C39.9556 80.7748 47.9983 79.9827 55.3073 76.9552C62.6164 73.9277 68.8635 68.8008 73.2588 62.2228C77.654 55.6448 80 47.9112 80 40C79.9888 29.3948 75.7709 19.2271 68.2719 11.7281C60.7729 4.22907 50.6052 0.0111993 40 0Z" fill="#D3E0F8" fill-opacity="0.8"/>
<path d="M57.5619 32.9465L36.0234 54.4849C35.7377 54.771 35.3983 54.998 35.0248 55.1528C34.6513 55.3076 34.2509 55.3873 33.8465 55.3873C33.4422 55.3873 33.0418 55.3076 32.6682 55.1528C32.2947 54.998 31.9554 54.771 31.6696 54.4849L22.4388 45.2542C21.8615 44.6768 21.5371 43.8937 21.5371 43.0772C21.5371 42.2607 21.8615 41.4777 22.4388 40.9003C23.0162 40.323 23.7992 39.9986 24.6157 39.9986C25.4322 39.9986 26.2153 40.323 26.7927 40.9003L33.8465 47.958L53.208 28.5926C53.4939 28.3068 53.8333 28.08 54.2068 27.9253C54.5803 27.7705 54.9807 27.6909 55.385 27.6909C55.7893 27.6909 56.1896 27.7705 56.5631 27.9253C56.9366 28.08 57.276 28.3068 57.5619 28.5926C57.8478 28.8785 58.0745 29.2179 58.2293 29.5914C58.384 29.9649 58.4636 30.3653 58.4636 30.7696C58.4636 31.1738 58.384 31.5742 58.2293 31.9477C58.0745 32.3212 57.8478 32.6606 57.5619 32.9465Z" fill="#4C71F5"/>
</svg>
