<svg width="24" height="24" viewBox="0 0 24 24" fill="none" xmlns="http://www.w3.org/2000/svg">
<path opacity="0.5" d="M22 12C22 17.523 17.523 22 12 22C6.477 22 2 17.523 2 12C2 6.477 6.477 2 12 2C17.523 2 22 6.477 22 12Z" fill="#3082F4"/>
<path d="M10.4129 8.498L10.5769 8.204C11.2099 7.068 11.5269 6.5 11.9999 6.5C12.4729 6.5 12.7899 7.068 13.4229 8.204L13.5869 8.498C13.7669 8.821 13.8569 8.982 13.9969 9.088C14.1369 9.195 14.3129 9.235 14.6619 9.314L14.9799 9.386C16.2099 9.664 16.8249 9.803 16.9709 10.274C17.1179 10.744 16.6979 11.234 15.8599 12.215L15.6429 12.469C15.4049 12.747 15.2859 12.887 15.2329 13.059C15.1779 13.231 15.1959 13.417 15.2329 13.789L15.2649 14.127C15.3919 15.435 15.4549 16.089 15.0719 16.38C14.6889 16.67 14.1139 16.406 12.9619 15.876L12.6639 15.738C12.3369 15.588 12.1739 15.512 11.9999 15.512C11.8269 15.512 11.6629 15.588 11.3359 15.738L11.0379 15.876C9.88592 16.406 9.31092 16.671 8.92792 16.38C8.54492 16.09 8.60792 15.435 8.73492 14.127L8.76692 13.789C8.80392 13.417 8.82192 13.231 8.76692 13.059C8.71392 12.887 8.59492 12.747 8.35692 12.469L8.13992 12.215C7.30192 11.235 6.88192 10.745 7.02892 10.274C7.17492 9.804 7.78892 9.664 9.01892 9.386L9.33792 9.314C9.68792 9.234 9.86192 9.195 10.0029 9.089C10.1429 8.982 10.2329 8.82 10.4129 8.498Z" fill="#3082F4"/>
</svg>
