<svg width="24" height="24" viewBox="0 0 24 24" fill="none" xmlns="http://www.w3.org/2000/svg">
<path d="M7.15 18.7998C5.22955 19.2324 4 19.896 4 20.6415C4 21.9435 7.7611 22.9998 12.4 22.9998C17.0389 22.9998 20.8 21.9435 20.8 20.6415C20.8 19.896 19.5704 19.2324 17.65 18.7998" stroke="#3082F4" stroke-width="2" stroke-linecap="round" stroke-linejoin="round"/>
<path d="M13.7211 18.2687C13.3665 18.6099 12.8934 18.8005 12.4013 18.8005C11.9091 18.8005 11.4361 18.6099 11.0814 18.2687C7.83799 15.1261 3.49204 11.6159 5.61094 6.5192C6.75859 3.76295 9.50959 2 12.4013 2C15.293 2 18.045 3.764 19.1916 6.5192C21.3084 11.6086 16.973 15.1366 13.7211 18.2687Z" stroke="#3082F4" stroke-width="1.8" stroke-linecap="round" stroke-linejoin="round"/>
<path d="M14.2678 11.2678C14.7366 10.7989 15 10.163 15 9.5C15 8.83696 14.7366 8.20107 14.2678 7.73223C13.7989 7.26339 13.163 7 12.5 7C11.837 7 11.2011 7.26339 10.7322 7.73223C10.2634 8.20107 10 8.83696 10 9.5C10 10.163 10.2634 10.7989 10.7322 11.2678C11.2011 11.7366 11.837 12 12.5 12C13.163 12 13.7989 11.7366 14.2678 11.2678Z" stroke="#FFAAA7" stroke-width="2" stroke-linecap="round" stroke-linejoin="round"/>
</svg>
