<svg width="28" height="28" viewBox="0 0 28 28" fill="none" xmlns="http://www.w3.org/2000/svg">
<path d="M11 18C11 18.2652 10.8946 18.5196 10.7071 18.7071C10.5196 18.8946 10.2652 19 10 19C9.73478 19 9.48043 18.8946 9.29289 18.7071C9.10536 18.5196 9 18.2652 9 18C9 17.7348 9.10536 17.4804 9.29289 17.2929C9.48043 17.1054 9.73478 17 10 17C10.2652 17 10.5196 17.1054 10.7071 17.2929C10.8946 17.4804 11 17.7348 11 18ZM15 18C15 18.2652 14.8946 18.5196 14.7071 18.7071C14.5196 18.8946 14.2652 19 14 19C13.7348 19 13.4804 18.8946 13.2929 18.7071C13.1054 18.5196 13 18.2652 13 18C13 17.7348 13.1054 17.4804 13.2929 17.2929C13.4804 17.1054 13.7348 17 14 17C14.2652 17 14.5196 17.1054 14.7071 17.2929C14.8946 17.4804 15 17.7348 15 18ZM18 19C18.2652 19 18.5196 18.8946 18.7071 18.7071C18.8946 18.5196 19 18.2652 19 18C19 17.7348 18.8946 17.4804 18.7071 17.2929C18.5196 17.1054 18.2652 17 18 17C17.7348 17 17.4804 17.1054 17.2929 17.2929C17.1054 17.4804 17 17.7348 17 18C17 18.2652 17.1054 18.5196 17.2929 18.7071C17.4804 18.8946 17.7348 19 18 19Z" fill="#CAD1EA"/>
<path fill-rule="evenodd" clip-rule="evenodd" d="M7.09302 9.90698V11.2403C6.86109 11.256 6.64211 11.2778 6.43609 11.3058C5.51516 11.4286 4.73953 11.6946 4.12353 12.3096C3.50753 12.9256 3.24353 13.7012 3.11972 14.6221C3 15.5093 3 16.638 3 18.0367V18.1493C3 19.5481 3 20.6767 3.11972 21.5639C3.24251 22.4848 3.50856 23.2605 4.12353 23.8765C4.73953 24.4925 5.51516 24.7565 6.43609 24.8813C7.32326 25 8.45191 25 9.8507 25H18.1493C19.5481 25 20.6767 25 21.5639 24.8813C22.4848 24.7565 23.2605 24.4925 23.8765 23.8765C24.4925 23.2605 24.7565 22.4848 24.8813 21.5639C25 20.6767 25 19.5481 25 18.1493V18.0367C25 16.638 25 15.5093 24.8813 14.6221C24.7565 13.7012 24.4925 12.9256 23.8765 12.3096C23.2605 11.6936 22.4848 11.4296 21.5639 11.3058C21.3457 11.2769 21.1266 11.255 20.907 11.2403V9.90698C20.907 8.07513 20.1793 6.31832 18.884 5.02301C17.5887 3.7277 15.8318 3 14 3C12.1682 3 10.4113 3.7277 9.11603 5.02301C7.82072 6.31832 7.09302 8.07513 7.09302 9.90698ZM14 4.53488C12.5752 4.53488 11.2088 5.10087 10.2014 6.10833C9.19389 7.1158 8.62791 8.48221 8.62791 9.90698V11.1891C9.00992 11.1864 9.41752 11.1854 9.8507 11.186H18.1493C18.5825 11.186 18.9901 11.1871 19.3721 11.1891V9.90698C19.3721 6.93953 16.9674 4.53488 14 4.53488ZM6.64074 12.8263C5.88967 12.9276 5.49265 13.1128 5.20921 13.3953C4.92577 13.6787 4.74158 14.0757 4.64028 14.8278C4.53693 15.6004 4.53488 16.6247 4.53488 18.093C4.53488 19.5614 4.53693 20.5857 4.64028 21.3593C4.74158 22.1103 4.92679 22.5073 5.20921 22.7908C5.49265 23.0742 5.88967 23.2584 6.64177 23.3597C7.4133 23.4631 8.4386 23.4651 9.90698 23.4651H18.093C19.5614 23.4651 20.5857 23.4631 21.3593 23.3597C22.1103 23.2584 22.5073 23.0732 22.7908 22.7908C23.0742 22.5073 23.2584 22.1103 23.3597 21.3582C23.4631 20.5857 23.4651 19.5614 23.4651 18.093C23.4651 16.6247 23.4631 15.5993 23.3597 14.8268C23.2584 14.0757 23.0732 13.6787 22.7908 13.3953C22.5073 13.1118 22.1103 12.9276 21.3582 12.8263C20.5857 12.723 19.5614 12.7209 18.093 12.7209H9.90698C8.4386 12.7209 7.4133 12.723 6.64074 12.8263Z" fill="#CAD1EA"/>
</svg>
