<svg width="136" height="136" viewBox="0 0 136 136" fill="none" xmlns="http://www.w3.org/2000/svg">
<rect width="136" height="136" fill="#F2F3F5"/>
<path d="M98.3333 95.3667H64.7333V78.5H60.0667V95.3667H37.6667V78.5H33V95.3667C33 96.7281 33.4917 98.0338 34.3668 98.9965C35.242 99.9592 36.429 100.5 37.6667 100.5H98.3333C99.571 100.5 100.758 99.9592 101.633 98.9965C102.508 98.0338 103 96.7281 103 95.3667V78.5H98.3333V95.3667Z" fill="white"/>
<path d="M106.488 57.9092L96.5431 38.1833C96.1395 37.3778 95.5173 36.6999 94.7465 36.2259C93.9758 35.7519 93.0869 35.5005 92.18 35.5H43.82C42.9131 35.5005 42.0242 35.7519 41.2534 36.2259C40.4827 36.6999 39.8605 37.3778 39.4569 38.1833L29.5119 57.9092C29.1724 58.5848 28.9971 59.33 29 60.0849V67.5304C28.9978 68.6601 29.3945 69.7548 30.1213 70.6247C31.1954 71.8458 32.522 72.8233 34.0109 73.4907C35.4998 74.1581 37.1161 74.4997 38.75 74.4925C41.4161 74.4966 44.0008 73.5823 46.0625 71.9059C48.1242 73.5833 50.7084 74.5 53.375 74.5C56.0417 74.5 58.6258 73.5833 60.6875 71.9059C62.7492 73.5833 65.3334 74.5 68 74.5C70.6666 74.5 73.2508 73.5833 75.3125 71.9059C77.3741 73.5833 79.9583 74.5 82.625 74.5C85.2916 74.5 87.8758 73.5833 89.9375 71.9059C92.2389 73.7799 95.1832 74.696 98.1516 74.4616C101.12 74.2272 103.881 72.8605 105.854 70.6489C106.59 69.7824 106.995 68.6873 107 67.5546V60.0849C107.003 59.33 106.828 58.5848 106.488 57.9092ZM60.6875 60.6409V64.3153L58.6888 66.9261C58.0752 67.7555 57.2733 68.4299 56.348 68.8948C55.4227 69.3597 54.4001 69.6019 53.3628 69.6019C52.3256 69.6019 51.3029 69.3597 50.3776 68.8948C49.4524 68.4299 48.6505 67.7555 48.0369 66.9261L46.0625 64.2186V60.6409L52.3756 40.3348H63.125L60.6875 60.6409ZM89.9375 64.2186L87.9631 66.9261C87.3495 67.7555 86.5476 68.4299 85.6224 68.8948C84.6971 69.3597 83.6744 69.6019 82.6372 69.6019C81.5999 69.6019 80.5773 69.3597 79.652 68.8948C78.7267 68.4299 77.9248 67.7555 77.3112 66.9261L75.3125 64.2186V60.6409L72.875 40.3348H83.7219L89.9375 60.6409V64.2186Z" fill="white"/>
</svg>
