<svg width="28" height="28" viewBox="0 0 28 28" fill="none" xmlns="http://www.w3.org/2000/svg">
<path d="M24.6403 18.1486C23.6909 16.5156 23.1867 14.1717 23.1867 11.375C23.1867 8.93832 22.2187 6.60145 20.4957 4.87846C18.7727 3.15547 16.4359 2.1875 13.9992 2.1875C11.5625 2.1875 9.22562 3.15547 7.50263 4.87846C5.77964 6.60145 4.81168 8.93832 4.81168 11.375C4.81168 14.1728 4.30964 16.5156 3.36027 18.1486C3.16655 18.4817 3.06386 18.8598 3.06251 19.2451C3.06117 19.6305 3.16122 20.0093 3.35261 20.3438C3.5428 20.6783 3.81884 20.9561 4.15224 21.1484C4.48564 21.3407 4.86432 21.4405 5.24918 21.4375H9.20636C9.31489 22.6337 9.86678 23.746 10.7536 24.556C11.6404 25.366 12.7981 25.8151 13.9992 25.8151C15.2002 25.8151 16.3579 25.366 17.2447 24.556C18.1316 23.746 18.6835 22.6337 18.792 21.4375H22.7492C23.1335 21.4399 23.5115 21.3398 23.8442 21.1476C24.177 20.9553 24.4525 20.6779 24.6425 20.3438C24.8347 20.0098 24.9357 19.6312 24.9353 19.2459C24.9349 18.8606 24.8332 18.4821 24.6403 18.1486ZM13.9992 23.1875C13.4949 23.1876 13.0061 23.0135 12.6154 22.6946C12.2248 22.3757 11.9563 21.9316 11.8554 21.4375H16.1429C16.0421 21.9316 15.7736 22.3757 15.3829 22.6946C14.9923 23.0135 14.5035 23.1876 13.9992 23.1875ZM5.97761 18.8125C6.94558 16.8438 7.43668 14.3434 7.43668 11.375C7.43668 9.63452 8.12808 7.96532 9.35879 6.73461C10.5895 5.5039 12.2587 4.8125 13.9992 4.8125C15.7397 4.8125 17.4089 5.5039 18.6396 6.73461C19.8703 7.96532 20.5617 9.63452 20.5617 11.375C20.5617 14.3423 21.0517 16.8438 22.0196 18.8125H5.97761Z" fill="#1B1C20"/>
<circle cx="22" cy="6" r="4" fill="#FF5C5C"/>
</svg>
