<svg width="142" height="40" viewBox="0 0 142 40" fill="none" xmlns="http://www.w3.org/2000/svg">
<rect width="142" height="40" rx="20" fill="#FEE500"/>
<path d="M48.5651 14.7896C48.5651 16.0549 48.4191 17.1911 48.1271 18.1982C47.8393 19.2054 47.3146 20.1449 46.5529 21.0166C45.7912 21.8841 44.7332 22.6564 43.3791 23.3335L42.6046 22.2671C43.7811 21.6873 44.7036 21.0378 45.3722 20.3184C46.0451 19.5947 46.5169 18.8055 46.7878 17.9507C47.0586 17.0916 47.194 16.0972 47.194 14.9673V14.7896H48.5651ZM48.0319 15.9321H43.2965V14.7896H48.0319V15.9321ZM42.8839 19.106L42.6999 17.8872L47.1559 17.6143V18.6997L42.8839 19.106ZM51.5866 25.1108H50.1774V13.6533H51.5866V25.1108ZM53.2878 19.3091H51.2248V18.1411H53.2878V19.3091ZM60.0604 14.7896C60.0604 16.0549 59.9145 17.1911 59.6225 18.1982C59.3347 19.2054 58.81 20.1449 58.0482 21.0166C57.2865 21.8841 56.2286 22.6564 54.8744 23.3335L54.1 22.2671C55.2764 21.6873 56.199 21.0378 56.8676 20.3184C57.5404 19.5947 58.0123 18.8055 58.2831 17.9507C58.5539 17.0916 58.6894 16.0972 58.6894 14.9673V14.7896H60.0604ZM59.5272 15.9321H54.7919V14.7896H59.5272V15.9321ZM54.3793 19.106L54.1952 17.8872L58.6513 17.6143V18.6997L54.3793 19.106ZM63.0819 25.1108H61.6728V13.6533H63.0819V25.1108ZM64.7831 19.3091H62.7201V18.1411H64.7831V19.3091ZM71.505 22.8193H70.1149V20.1025H71.505V22.8193ZM70.8195 14.2944C71.632 14.2944 72.362 14.4235 73.0094 14.6816C73.6611 14.9398 74.171 15.3037 74.5392 15.7734C74.9074 16.2432 75.0914 16.7827 75.0914 17.3921C75.0914 18.0184 74.9074 18.5664 74.5392 19.0361C74.171 19.5059 73.6632 19.8698 73.0158 20.1279C72.3683 20.3818 71.6362 20.5088 70.8195 20.5088C70.0027 20.5088 69.2685 20.3818 68.6168 20.1279C67.9694 19.8698 67.4616 19.5059 67.0934 19.0361C66.7295 18.5664 66.5475 18.0184 66.5475 17.3921C66.5475 16.7827 66.7295 16.2432 67.0934 15.7734C67.4616 15.3037 67.9694 14.9398 68.6168 14.6816C69.2685 14.4235 70.0027 14.2944 70.8195 14.2944ZM70.8195 15.4307C70.2609 15.4307 69.7615 15.5111 69.3214 15.6719C68.8813 15.8327 68.5385 16.0612 68.2931 16.3574C68.0519 16.6536 67.9313 16.9985 67.9313 17.3921C67.9313 17.7983 68.0519 18.1517 68.2931 18.4521C68.5385 18.7526 68.8792 18.9832 69.3151 19.144C69.751 19.3006 70.2524 19.381 70.8195 19.3853C71.3865 19.381 71.8859 19.3006 72.3175 19.144C72.7534 18.9832 73.0919 18.7526 73.3331 18.4521C73.5786 18.1517 73.7013 17.7983 73.7013 17.3921C73.7013 16.9985 73.5786 16.6536 73.3331 16.3574C73.0919 16.0612 72.7534 15.8327 72.3175 15.6719C71.8816 15.5111 71.3823 15.4307 70.8195 15.4307ZM76.0817 23.7397H65.5954V22.5781H76.0817V23.7397ZM87.577 23.7969H77.0907V22.6353H87.577V23.7969ZM83.0004 23.1304H81.6102V20.3691H83.0004V23.1304ZM86.3265 18.1221H79.7377V20.2041H78.3285V17.0112H84.9364V15.5767H78.3095V14.4341H86.3265V18.1221ZM86.5995 20.7563H78.3285V19.6074H86.5995V20.7563ZM102.43 23.7969H91.9437V22.6353H102.43V23.7969ZM97.8534 23.1304H96.4632V20.3691H97.8534V23.1304ZM101.18 18.1221H94.5907V20.2041H93.1815V17.0112H99.7894V15.5767H93.1625V14.4341H101.18V18.1221ZM101.452 20.7563H93.1815V19.6074H101.452V20.7563ZM111.907 15.9131H104.537V14.7642H111.907V15.9131ZM113.887 23.5493H103.439V22.4004H113.887V23.5493ZM112.561 16.0654C112.561 16.7637 112.552 17.354 112.535 17.8364C112.523 18.3188 112.487 18.8796 112.427 19.5186C112.372 20.1533 112.279 20.8452 112.148 21.5942L110.707 21.4736C110.851 20.7712 110.955 20.1089 111.018 19.4868C111.086 18.8647 111.126 18.3083 111.139 17.8174C111.151 17.3223 111.158 16.7383 111.158 16.0654V14.7642H112.561V16.0654ZM124.481 21.9561H123.066V13.666H124.481V21.9561ZM124.805 24.9141H116.889V23.7588H124.805V24.9141ZM118.311 24.2095H116.889V21.1182H118.311V24.2095ZM118.229 14.415C118.809 14.415 119.333 14.5378 119.803 14.7832C120.277 15.0286 120.647 15.3693 120.914 15.8052C121.185 16.241 121.32 16.7319 121.32 17.2778C121.32 17.8364 121.185 18.3358 120.914 18.7759C120.647 19.2118 120.277 19.5524 119.803 19.7979C119.333 20.0433 118.809 20.166 118.229 20.166C117.649 20.166 117.124 20.0433 116.655 19.7979C116.189 19.5524 115.819 19.2118 115.544 18.7759C115.273 18.3358 115.138 17.8364 115.138 17.2778C115.138 16.7319 115.273 16.241 115.544 15.8052C115.819 15.3693 116.189 15.0286 116.655 14.7832C117.124 14.5378 117.649 14.415 118.229 14.415ZM118.229 15.6528C117.903 15.6486 117.609 15.7142 117.347 15.8496C117.088 15.9808 116.885 16.1712 116.737 16.4209C116.589 16.6706 116.515 16.9562 116.515 17.2778C116.515 17.6079 116.589 17.8999 116.737 18.1538C116.885 18.4035 117.088 18.596 117.347 18.7314C117.609 18.8626 117.903 18.9282 118.229 18.9282C118.55 18.9282 118.84 18.8626 119.098 18.7314C119.357 18.596 119.558 18.4035 119.702 18.1538C119.85 17.8999 119.924 17.6079 119.924 17.2778C119.924 16.9562 119.85 16.6706 119.702 16.4209C119.558 16.1712 119.357 15.9808 119.098 15.8496C118.84 15.7142 118.55 15.6486 118.229 15.6528Z" fill="black"/>
<g clip-path="url(#clip0_551_2074)">
<path fill-rule="evenodd" clip-rule="evenodd" d="M25 11.6001C20.0292 11.6001 16 14.7131 16 18.5524C16 20.9401 17.5584 23.0451 19.9315 24.2971L18.933 27.9446C18.8448 28.2669 19.2134 28.5238 19.4965 28.337L23.8733 25.4483C24.2427 25.4839 24.6181 25.5047 25 25.5047C29.9705 25.5047 33.9999 22.3919 33.9999 18.5524C33.9999 14.7131 29.9705 11.6001 25 11.6001" fill="black"/>
</g>
<defs>
<clipPath id="clip0_551_2074">
<rect width="17.9999" height="18" fill="white" transform="translate(16 11)"/>
</clipPath>
</defs>
</svg>
