<svg width="140" height="40" viewBox="0 0 140 40" fill="none" xmlns="http://www.w3.org/2000/svg">
<rect width="140" height="40" rx="20" fill="#2B2B2C"/>
<path d="M38.5004 24L41.7377 14.8086H43.7753L47.0126 24H45.248L42.7914 16.6875H42.7153L40.2587 24H38.5004ZM45.1718 20.3945V21.7212H40.3285V20.3945H45.1718ZM48.3073 17.1064H49.8879V18.2427H49.9894C50.1079 18.0142 50.2391 17.8153 50.383 17.646C50.5311 17.4767 50.7363 17.3307 50.9987 17.208C51.2653 17.0811 51.5848 17.0176 51.9572 17.0176C52.4989 17.0176 52.9834 17.1551 53.4108 17.4302C53.8424 17.701 54.181 18.1051 54.4264 18.6426C54.6761 19.1758 54.8009 19.8148 54.8009 20.5596C54.8009 21.2959 54.6782 21.9328 54.4328 22.4702C54.1916 23.0076 53.8551 23.4181 53.4235 23.7017C52.9919 23.981 52.5052 24.1206 51.9635 24.1206C51.5954 24.1206 51.278 24.0592 51.0114 23.9365C50.749 23.8096 50.5417 23.6636 50.3893 23.4985C50.2412 23.3335 50.1079 23.1388 49.9894 22.9146H49.9196V26.5898H48.3073V17.1064ZM49.8815 20.5469C49.8815 20.9912 49.945 21.3848 50.0719 21.7275C50.1989 22.0661 50.3851 22.3285 50.6305 22.5146C50.8802 22.7008 51.1764 22.7939 51.5192 22.7939C51.8704 22.7939 52.1688 22.6987 52.4142 22.5083C52.6639 22.3136 52.8501 22.0492 52.9728 21.7148C53.0998 21.3763 53.1632 20.987 53.1632 20.5469C53.1632 20.1152 53.0998 19.7323 52.9728 19.3979C52.8501 19.0636 52.666 18.8055 52.4206 18.6235C52.1751 18.4373 51.8747 18.3442 51.5192 18.3442C51.1722 18.3442 50.876 18.4352 50.6305 18.6172C50.3851 18.7949 50.1989 19.0488 50.0719 19.3789C49.945 19.709 49.8815 20.0983 49.8815 20.5469ZM56.3495 17.1064H57.9301V18.2427H58.0316C58.1501 18.0142 58.2813 17.8153 58.4252 17.646C58.5733 17.4767 58.7786 17.3307 59.0409 17.208C59.3075 17.0811 59.627 17.0176 59.9994 17.0176C60.5411 17.0176 61.0256 17.1551 61.453 17.4302C61.8847 17.701 62.2232 18.1051 62.4687 18.6426C62.7183 19.1758 62.8432 19.8148 62.8432 20.5596C62.8432 21.2959 62.7204 21.9328 62.475 22.4702C62.2338 23.0076 61.8974 23.4181 61.4657 23.7017C61.0341 23.981 60.5474 24.1206 60.0058 24.1206C59.6376 24.1206 59.3202 24.0592 59.0536 23.9365C58.7912 23.8096 58.5839 23.6636 58.4315 23.4985C58.2834 23.3335 58.1501 23.1388 58.0316 22.9146H57.9618V26.5898H56.3495V17.1064ZM57.9237 20.5469C57.9237 20.9912 57.9872 21.3848 58.1142 21.7275C58.2411 22.0661 58.4273 22.3285 58.6728 22.5146C58.9224 22.7008 59.2187 22.7939 59.5614 22.7939C59.9127 22.7939 60.211 22.6987 60.4564 22.5083C60.7061 22.3136 60.8923 22.0492 61.015 21.7148C61.142 21.3763 61.2055 20.987 61.2055 20.5469C61.2055 20.1152 61.142 19.7323 61.015 19.3979C60.8923 19.0636 60.7082 18.8055 60.4628 18.6235C60.2174 18.4373 59.9169 18.3442 59.5614 18.3442C59.2144 18.3442 58.9182 18.4352 58.6728 18.6172C58.4273 18.7949 58.2411 19.0488 58.1142 19.3789C57.9872 19.709 57.9237 20.0983 57.9237 20.5469ZM66.004 24H64.3917V14.8086H66.004V24ZM70.8724 24.1333C70.1911 24.1333 69.5987 23.9894 69.0951 23.7017C68.5915 23.4139 68.2022 23.0034 67.9271 22.4702C67.6563 21.937 67.5209 21.3128 67.5209 20.5977C67.5209 19.891 67.6563 19.2668 67.9271 18.7251C68.2022 18.1792 68.5852 17.7581 69.0761 17.4619C69.5669 17.1657 70.1382 17.0176 70.7899 17.0176C71.3781 17.0176 71.9092 17.1424 72.3832 17.3921C72.8571 17.6418 73.2338 18.029 73.5131 18.5537C73.7924 19.0742 73.932 19.7196 73.932 20.4897V20.9976H68.2889V19.8994H72.3832C72.3832 19.5863 72.3176 19.307 72.1864 19.0615C72.0552 18.8161 71.869 18.6235 71.6278 18.4839C71.3908 18.3442 71.1179 18.2744 70.809 18.2744C70.4789 18.2744 70.1869 18.3527 69.933 18.5093C69.6791 18.6659 69.4802 18.8774 69.3363 19.144C69.1967 19.4064 69.1247 19.6942 69.1205 20.0073V20.9468C69.1205 21.3488 69.1924 21.6958 69.3363 21.9878C69.4844 22.2756 69.6918 22.4956 69.9584 22.6479C70.225 22.8003 70.536 22.8765 70.8915 22.8765C71.12 22.8765 71.3252 22.8447 71.5072 22.7812C71.6934 22.7178 71.8521 22.6353 71.9833 22.5337C72.1145 22.4279 72.2139 22.3031 72.2816 22.1592H73.8685C73.7712 22.5527 73.5871 22.8997 73.3163 23.2002C73.0497 23.4964 72.7069 23.7271 72.288 23.8921C71.869 24.0529 71.3972 24.1333 70.8724 24.1333ZM85.548 23.7969H75.0616V22.6353H85.548V23.7969ZM80.9713 23.1304H79.5812V20.3691H80.9713V23.1304ZM84.2975 18.1221H77.7086V20.2041H76.2994V17.0112H82.9073V15.5767H76.2804V14.4341H84.2975V18.1221ZM84.5704 20.7563H76.2994V19.6074H84.5704V20.7563ZM100.401 23.7969H89.9146V22.6353H100.401V23.7969ZM95.8243 23.1304H94.4342V20.3691H95.8243V23.1304ZM99.1505 18.1221H92.5616V20.2041H91.1524V17.0112H97.7604V15.5767H91.1334V14.4341H99.1505V18.1221ZM99.4234 20.7563H91.1524V19.6074H99.4234V20.7563ZM109.878 15.9131H102.508V14.7642H109.878V15.9131ZM111.858 23.5493H101.41V22.4004H111.858V23.5493ZM110.532 16.0654C110.532 16.7637 110.523 17.354 110.506 17.8364C110.493 18.3188 110.458 18.8796 110.398 19.5186C110.343 20.1533 110.25 20.8452 110.119 21.5942L108.678 21.4736C108.822 20.7712 108.926 20.1089 108.989 19.4868C109.057 18.8647 109.097 18.3083 109.11 17.8174C109.122 17.3223 109.129 16.7383 109.129 16.0654V14.7642H110.532V16.0654ZM122.452 21.9561H121.037V13.666H122.452V21.9561ZM122.776 24.9141H114.86V23.7588H122.776V24.9141ZM116.282 24.2095H114.86V21.1182H116.282V24.2095ZM116.2 14.415C116.78 14.415 117.304 14.5378 117.774 14.7832C118.248 15.0286 118.618 15.3693 118.885 15.8052C119.156 16.241 119.291 16.7319 119.291 17.2778C119.291 17.8364 119.156 18.3358 118.885 18.7759C118.618 19.2118 118.248 19.5524 117.774 19.7979C117.304 20.0433 116.78 20.166 116.2 20.166C115.62 20.166 115.095 20.0433 114.626 19.7979C114.16 19.5524 113.79 19.2118 113.515 18.7759C113.244 18.3358 113.108 17.8364 113.108 17.2778C113.108 16.7319 113.244 16.241 113.515 15.8052C113.79 15.3693 114.16 15.0286 114.626 14.7832C115.095 14.5378 115.62 14.415 116.2 14.415ZM116.2 15.6528C115.874 15.6486 115.58 15.7142 115.317 15.8496C115.059 15.9808 114.856 16.1712 114.708 16.4209C114.56 16.6706 114.486 16.9562 114.486 17.2778C114.486 17.6079 114.56 17.8999 114.708 18.1538C114.856 18.4035 115.059 18.596 115.317 18.7314C115.58 18.8626 115.874 18.9282 116.2 18.9282C116.521 18.9282 116.811 18.8626 117.069 18.7314C117.328 18.596 117.529 18.4035 117.672 18.1538C117.821 17.8999 117.895 17.6079 117.895 17.2778C117.895 16.9562 117.821 16.6706 117.672 16.4209C117.529 16.1712 117.328 15.9808 117.069 15.8496C116.811 15.7142 116.521 15.6486 116.2 15.6528Z" fill="white"/>
<path d="M23.7227 13.3846C24.5547 13.3846 25.5977 12.8048 26.2188 12.0318C26.7812 11.3312 27.1914 10.3528 27.1914 9.37444C27.1914 9.24158 27.1797 9.10871 27.1562 9C26.2305 9.03624 25.1172 9.64018 24.4492 10.4495C23.9219 11.0655 23.4414 12.0318 23.4414 13.0223C23.4414 13.1672 23.4648 13.3121 23.4766 13.3605C23.5352 13.3725 23.6289 13.3846 23.7227 13.3846ZM20.793 28C21.9297 28 22.4336 27.2149 23.8516 27.2149C25.293 27.2149 25.6094 27.9758 26.875 27.9758C28.1172 27.9758 28.9492 26.7921 29.7344 25.6325C30.6133 24.3039 30.9766 22.9994 31 22.939C30.918 22.9148 28.5391 21.9123 28.5391 19.0979C28.5391 16.658 30.4141 15.5588 30.5195 15.4743C29.2773 13.6383 27.3906 13.59 26.875 13.59C25.4805 13.59 24.3438 14.4596 23.6289 14.4596C22.8555 14.4596 21.8359 13.6383 20.6289 13.6383C18.332 13.6383 16 15.595 16 19.2912C16 21.5861 16.8672 24.014 17.9336 25.5842C18.8477 26.9129 19.6445 28 20.793 28Z" fill="white"/>
</svg>
