<svg width="32" height="32" viewBox="0 0 32 32" fill="none" xmlns="http://www.w3.org/2000/svg">
<path opacity="0.2" d="M28 6.99991V21.9999C20 28.9287 14 15.0712 6 21.9999V6.99991C14 0.0711637 20 13.9287 28 6.99991Z" fill="#343330"/>
<path d="M5.345 6.25009C5.23742 6.34334 5.15099 6.45848 5.09149 6.58783C5.032 6.71717 5.0008 6.85772 5 7.00009V28.0001C5 28.2653 5.10536 28.5197 5.29289 28.7072C5.48043 28.8947 5.73478 29.0001 6 29.0001C6.26522 29.0001 6.51957 28.8947 6.70711 28.7072C6.89464 28.5197 7 28.2653 7 28.0001V22.4713C10.3488 19.8263 13.2337 21.2526 16.5562 22.8976C18.6062 23.9113 20.8137 25.0038 23.1812 25.0038C24.9225 25.0038 26.7488 24.4101 28.6588 22.7538C28.7663 22.6606 28.8528 22.5454 28.9123 22.4161C28.9718 22.2868 29.0029 22.1462 29.0037 22.0038V7.00009C29.0033 6.80815 28.9476 6.62039 28.8433 6.45924C28.7391 6.29808 28.5906 6.17034 28.4157 6.09126C28.2408 6.01218 28.0469 5.98511 27.857 6.01327C27.6672 6.04143 27.4894 6.12365 27.345 6.25009C23.845 9.27884 20.88 7.81134 17.4438 6.11009C13.8838 4.34509 9.8475 2.34884 5.345 6.25009ZM27 21.5313C23.6512 24.1763 20.7663 22.7488 17.4438 21.1051C14.3188 19.5613 10.8425 17.8388 7 20.0551V7.47384C10.3488 4.82884 13.2337 6.25509 16.5562 7.89884C19.6812 9.44259 23.1588 11.1651 27 8.94884V21.5313Z" fill="#343330"/>
</svg>
