<svg width="28" height="28" viewBox="0 0 28 28" fill="none" xmlns="http://www.w3.org/2000/svg">
<path d="M24.9375 14C24.9375 14.3481 24.7992 14.6819 24.5531 14.9281C24.3069 15.1742 23.9731 15.3125 23.625 15.3125H4.375C4.0269 15.3125 3.69306 15.1742 3.44692 14.9281C3.20078 14.6819 3.0625 14.3481 3.0625 14C3.0625 13.6519 3.20078 13.3181 3.44692 13.0719C3.69306 12.8258 4.0269 12.6875 4.375 12.6875H23.625C23.9731 12.6875 24.3069 12.8258 24.5531 13.0719C24.7992 13.3181 24.9375 13.6519 24.9375 14ZM4.375 8.3125H23.625C23.9731 8.3125 24.3069 8.17422 24.5531 7.92808C24.7992 7.68194 24.9375 7.3481 24.9375 7C24.9375 6.6519 24.7992 6.31806 24.5531 6.07192C24.3069 5.82578 23.9731 5.6875 23.625 5.6875H4.375C4.0269 5.6875 3.69306 5.82578 3.44692 6.07192C3.20078 6.31806 3.0625 6.6519 3.0625 7C3.0625 7.3481 3.20078 7.68194 3.44692 7.92808C3.69306 8.17422 4.0269 8.3125 4.375 8.3125ZM23.625 19.6875H4.375C4.0269 19.6875 3.69306 19.8258 3.44692 20.0719C3.20078 20.3181 3.0625 20.6519 3.0625 21C3.0625 21.3481 3.20078 21.6819 3.44692 21.9281C3.69306 22.1742 4.0269 22.3125 4.375 22.3125H23.625C23.9731 22.3125 24.3069 22.1742 24.5531 21.9281C24.7992 21.6819 24.9375 21.3481 24.9375 21C24.9375 20.6519 24.7992 20.3181 24.5531 20.0719C24.3069 19.8258 23.9731 19.6875 23.625 19.6875Z" fill="#1B1C20"/>
</svg>
