<svg width="32" height="32" viewBox="0 0 32 32" fill="none" xmlns="http://www.w3.org/2000/svg">
<path d="M16 3.25C13.4783 3.25 11.0132 3.99777 8.91648 5.39876C6.81976 6.79975 5.18556 8.79103 4.22054 11.1208C3.25552 13.4505 3.00303 16.0141 3.49499 18.4874C3.98696 20.9607 5.20127 23.2325 6.98439 25.0156C8.76751 26.7987 11.0393 28.0131 13.5126 28.505C15.9859 28.997 18.5495 28.7445 20.8792 27.7795C23.209 26.8144 25.2003 25.1802 26.6012 23.0835C28.0022 20.9868 28.75 18.5217 28.75 16C28.746 12.6197 27.4015 9.379 25.0112 6.98877C22.621 4.59854 19.3803 3.25397 16 3.25ZM16 27.25C13.775 27.25 11.5999 26.5902 9.74984 25.354C7.89979 24.1179 6.45785 22.3609 5.60636 20.3052C4.75488 18.2495 4.53209 15.9875 4.96617 13.8052C5.40025 11.6229 6.47171 9.61839 8.04505 8.04505C9.6184 6.47171 11.623 5.40025 13.8052 4.96617C15.9875 4.53208 18.2495 4.75487 20.3052 5.60636C22.3609 6.45784 24.1179 7.89978 25.354 9.74984C26.5902 11.5999 27.25 13.775 27.25 16C27.2467 18.9827 26.0604 21.8422 23.9513 23.9513C21.8422 26.0604 18.9827 27.2467 16 27.25ZM20.75 14C20.7501 13.195 20.5455 12.4032 20.1556 11.6989C19.7656 10.9946 19.2031 10.401 18.5208 9.97382C17.8385 9.5466 17.0589 9.29979 16.255 9.25658C15.4512 9.21336 14.6495 9.37515 13.9254 9.72675C13.2012 10.0784 12.5783 10.6082 12.1151 11.2666C11.6519 11.925 11.3636 12.6904 11.2774 13.4907C11.1911 14.2911 11.3097 15.1003 11.6219 15.8422C11.9342 16.5842 12.4299 17.2347 13.0625 17.7325L11.3125 21.6975C11.2621 21.8118 11.2411 21.9368 11.2513 22.0612C11.2615 22.1857 11.3026 22.3056 11.3709 22.4102C11.4392 22.5147 11.5325 22.6005 11.6423 22.6599C11.7522 22.7192 11.8751 22.7502 12 22.75H20C20.1248 22.75 20.2476 22.7189 20.3572 22.6594C20.4669 22.6 20.5601 22.5141 20.6282 22.4096C20.6964 22.3051 20.7374 22.1853 20.7475 22.0609C20.7576 21.9366 20.7366 21.8117 20.6863 21.6975L18.9363 17.7325C19.5002 17.2872 19.9562 16.7201 20.2703 16.0738C20.5844 15.4275 20.7484 14.7186 20.75 14ZM17.625 16.8162C17.4651 16.9087 17.3449 17.0568 17.2875 17.2324C17.2301 17.4079 17.2394 17.5984 17.3138 17.7675L18.85 21.25H13.15L14.6863 17.7675C14.7606 17.5984 14.7699 17.4079 14.7125 17.2324C14.6551 17.0568 14.5349 16.9087 14.375 16.8162C13.7554 16.4585 13.2712 15.9064 12.9974 15.2454C12.7236 14.5844 12.6756 13.8516 12.8607 13.1605C13.0459 12.4694 13.4539 11.8588 14.0215 11.4233C14.5891 10.9877 15.2846 10.7517 16 10.7517C16.7154 10.7517 17.4109 10.9877 17.9785 11.4233C18.5461 11.8588 18.9541 12.4694 19.1393 13.1605C19.3244 13.8516 19.2764 14.5844 19.0026 15.2454C18.7288 15.9064 18.2446 16.4585 17.625 16.8162Z" fill="#343330"/>
</svg>
