<svg width="32" height="32" viewBox="0 0 32 32" fill="none" xmlns="http://www.w3.org/2000/svg">
<path d="M28.0525 13.025C27.565 12.5162 27.0612 11.9913 26.8587 11.5025C26.6712 11.0487 26.6612 10.3775 26.65 9.6675C26.6325 8.495 26.6125 7.1675 25.7225 6.2775C24.8325 5.3875 23.5 5.3675 22.3325 5.35C21.6225 5.33875 20.9575 5.32875 20.4975 5.14125C20.0087 4.93875 19.4838 4.435 18.975 3.9475C18.145 3.1525 17.205 2.25 16 2.25C14.795 2.25 13.855 3.1525 13.025 3.9475C12.5162 4.435 11.9913 4.93875 11.5025 5.14125C11.0487 5.32875 10.3775 5.33875 9.6675 5.35C8.495 5.3675 7.1675 5.3875 6.2775 6.2775C5.3875 7.1675 5.3675 8.5 5.35 9.6675C5.33875 10.3775 5.32875 11.0425 5.14125 11.5025C4.93875 11.9913 4.435 12.5162 3.9475 13.025C3.1525 13.855 2.25 14.795 2.25 16C2.25 17.205 3.1525 18.145 3.9475 18.975C4.435 19.4838 4.93875 20.0087 5.14125 20.4975C5.32875 20.9513 5.33875 21.6225 5.35 22.3325C5.3675 23.505 5.3875 24.8325 6.2775 25.7225C7.1675 26.6125 8.5 26.6325 9.6675 26.65C10.3775 26.6612 11.0425 26.6712 11.5025 26.8587C11.9913 27.0612 12.5162 27.565 13.025 28.0525C13.855 28.8475 14.795 29.75 16 29.75C17.205 29.75 18.145 28.8475 18.975 28.0525C19.4838 27.565 20.0087 27.0612 20.4975 26.8587C20.9513 26.6712 21.6225 26.6612 22.3325 26.65C23.505 26.6325 24.8325 26.6125 25.7225 25.7225C26.6125 24.8325 26.6325 23.505 26.65 22.3325C26.6612 21.6225 26.6712 20.9575 26.8587 20.4975C27.0612 20.0087 27.565 19.4838 28.0525 18.975C28.8475 18.145 29.75 17.205 29.75 16C29.75 14.795 28.8475 13.855 28.0525 13.025ZM26.97 17.9375C26.3862 18.545 25.7825 19.175 25.47 19.925C25.1725 20.6425 25.16 21.49 25.1475 22.31C25.1337 23.24 25.1187 24.2025 24.66 24.6625C24.2013 25.1225 23.2375 25.1362 22.3075 25.15C21.4875 25.1625 20.64 25.175 19.9225 25.4725C19.1725 25.7825 18.5475 26.3862 17.9338 26.9725C17.2775 27.5975 16.5988 28.2525 15.9975 28.2525C15.3963 28.2525 14.7175 27.6012 14.06 26.9725C13.4525 26.3888 12.8225 25.785 12.0725 25.4725C11.355 25.175 10.5075 25.1625 9.6875 25.15C8.7575 25.1362 7.795 25.1213 7.335 24.6625C6.875 24.2038 6.86125 23.24 6.8475 22.31C6.835 21.49 6.8225 20.6425 6.525 19.925C6.215 19.175 5.61125 18.55 5.025 17.9363C4.40125 17.28 3.75 16.6012 3.75 16C3.75 15.3988 4.40125 14.72 5.03 14.0625C5.61375 13.455 6.2175 12.825 6.53 12.075C6.8275 11.3575 6.84 10.51 6.8525 9.69C6.86625 8.76 6.88125 7.7975 7.34 7.3375C7.79875 6.8775 8.7625 6.86375 9.6925 6.85C10.5125 6.8375 11.36 6.825 12.0775 6.5275C12.8275 6.2175 13.4525 5.61375 14.0662 5.0275C14.72 4.40125 15.3988 3.75 16 3.75C16.6012 3.75 17.28 4.40125 17.9375 5.03C18.545 5.61375 19.175 6.2175 19.925 6.53C20.6425 6.8275 21.49 6.84 22.31 6.8525C23.24 6.86625 24.2025 6.88125 24.6625 7.34C25.1225 7.79875 25.1362 8.7625 25.15 9.6925C25.1625 10.5125 25.175 11.36 25.4725 12.0775C25.7825 12.8275 26.3862 13.4525 26.9725 14.0662C27.5975 14.7225 28.2525 15.4013 28.2525 16.0025C28.2525 16.6038 27.5987 17.28 26.97 17.9375ZM15.25 17V10C15.25 9.80109 15.329 9.61032 15.4697 9.46967C15.6103 9.32902 15.8011 9.25 16 9.25C16.1989 9.25 16.3897 9.32902 16.5303 9.46967C16.671 9.61032 16.75 9.80109 16.75 10V17C16.75 17.1989 16.671 17.3897 16.5303 17.5303C16.3897 17.671 16.1989 17.75 16 17.75C15.8011 17.75 15.6103 17.671 15.4697 17.5303C15.329 17.3897 15.25 17.1989 15.25 17ZM17.25 21.5C17.25 21.7472 17.1767 21.9889 17.0393 22.1945C16.902 22.4 16.7068 22.5602 16.4784 22.6549C16.2499 22.7495 15.9986 22.7742 15.7561 22.726C15.5137 22.6777 15.2909 22.5587 15.1161 22.3839C14.9413 22.2091 14.8222 21.9863 14.774 21.7439C14.7258 21.5014 14.7505 21.2501 14.8452 21.0216C14.9398 20.7932 15.1 20.598 15.3055 20.4607C15.5111 20.3233 15.7528 20.25 16 20.25C16.3315 20.25 16.6495 20.3817 16.8839 20.6161C17.1183 20.8505 17.25 21.1685 17.25 21.5Z" fill="#343330"/>
</svg>
