<svg width="44" height="58" viewBox="0 0 44 58" fill="none" xmlns="http://www.w3.org/2000/svg">
<path d="M5.5 0C4.04131 0 2.64236 0.579463 1.61091 1.61091C0.579463 2.64236 0 4.04131 0 5.5L0 41.5C0 42.9587 0.579463 44.3576 1.61091 45.3891C2.64236 46.4205 4.04131 47 5.5 47H12.375C12.8019 47 13.223 47.0994 13.6048 47.2903C13.9867 47.4812 14.3188 47.7585 14.575 48.1L19.8 55.0657C20.0562 55.4073 20.3883 55.6845 20.7702 55.8754C21.152 56.0663 21.5731 56.1657 22 56.1657C22.4269 56.1657 22.848 56.0663 23.2298 55.8754C23.6117 55.6845 23.9438 55.4073 24.2 55.0657L29.425 48.1C29.6812 47.7585 30.0133 47.4812 30.3952 47.2903C30.777 47.0994 31.1981 47 31.625 47H38.5C39.9587 47 41.3576 46.4205 42.3891 45.3891C43.4205 44.3576 44 42.9587 44 41.5V5.5C44 4.04131 43.4205 2.64236 42.3891 1.61091C41.3576 0.579463 39.9587 0 38.5 0H5.5Z" fill="#313946"/>
<path d="M17 17.5L21.3043 21L28 14" stroke="white" stroke-width="2.5" stroke-linecap="round" stroke-linejoin="round"/>
<path d="M10.7148 32.0352C10.6953 31.8281 10.6328 31.6504 10.5273 31.502C10.4219 31.3535 10.2734 31.2422 10.082 31.168C9.89062 31.0898 9.6582 31.0508 9.38477 31.0508C9.12305 31.0508 8.90039 31.0859 8.7168 31.1562C8.5332 31.2266 8.39453 31.3242 8.30078 31.4492C8.20703 31.5742 8.16016 31.7188 8.16016 31.8828C8.15234 32.1289 8.25586 32.3262 8.4707 32.4746C8.68555 32.6191 9.00195 32.7402 9.41992 32.8379L10.1582 33.002C11.0098 33.1895 11.6523 33.4922 12.0859 33.9102C12.5195 34.3242 12.7402 34.8672 12.748 35.5391C12.748 36.0703 12.6133 36.5293 12.3438 36.916C12.0742 37.2988 11.6895 37.5938 11.1895 37.8008C10.6895 38.0039 10.0898 38.1055 9.39062 38.1055C8.67578 38.1055 8.05664 37.998 7.5332 37.7832C7.00977 37.5684 6.60547 37.2461 6.32031 36.8164C6.03516 36.3828 5.88477 35.8457 5.86914 35.2051H7.79102C7.81055 35.4746 7.88672 35.7031 8.01953 35.8906C8.15234 36.0742 8.33398 36.2129 8.56445 36.3066C8.79492 36.4004 9.06055 36.4473 9.36133 36.4473C9.64258 36.4473 9.88477 36.4082 10.0879 36.3301C10.291 36.252 10.4453 36.1445 10.5508 36.0078C10.6602 35.8711 10.7148 35.7129 10.7148 35.5332C10.7148 35.373 10.666 35.2344 10.5684 35.1172C10.4707 35 10.3223 34.8984 10.123 34.8125C9.92383 34.7266 9.66211 34.6465 9.33789 34.5723L8.44727 34.3613C7.68555 34.1895 7.10352 33.9121 6.70117 33.5293C6.29883 33.1465 6.09766 32.6426 6.09766 32.0176C6.09766 31.502 6.23828 31.0469 6.51953 30.6523C6.80078 30.2578 7.19141 29.9512 7.69141 29.7324C8.19141 29.5098 8.75977 29.3984 9.39648 29.3984C10.041 29.3984 10.6055 29.5078 11.0898 29.7266C11.5781 29.9453 11.9551 30.2539 12.2207 30.6523C12.4902 31.0508 12.627 31.5117 12.6309 32.0352H10.7148ZM13.7793 29.5156H15.7715V32.9434H19.1816V29.5156H21.1797V38H19.1816V34.5664H15.7715V38H13.7793V29.5156ZM30.4258 33.7578C30.4258 34.6641 30.25 35.4453 29.8984 36.1016C29.5469 36.7578 29.0664 37.2578 28.457 37.6016C27.8477 37.9453 27.1582 38.1172 26.3887 38.1172C25.623 38.1172 24.9336 37.9453 24.3203 37.6016C23.7109 37.2578 23.2305 36.7559 22.8789 36.0957C22.5312 35.4355 22.3574 34.6562 22.3574 33.7578C22.3574 32.8438 22.5312 32.0586 22.8789 31.4023C23.2305 30.7461 23.7109 30.248 24.3203 29.9082C24.9336 29.5684 25.623 29.3984 26.3887 29.3984C27.1582 29.3984 27.8477 29.5684 28.457 29.9082C29.0664 30.248 29.5469 30.7461 29.8984 31.4023C30.25 32.0586 30.4258 32.8438 30.4258 33.7578ZM28.3867 33.7578C28.3867 33.1992 28.3066 32.7266 28.1465 32.3398C27.9902 31.9492 27.7617 31.6543 27.4609 31.4551C27.1641 31.252 26.8066 31.1504 26.3887 31.1504C25.9746 31.1504 25.6172 31.252 25.3164 31.4551C25.0195 31.6543 24.791 31.9492 24.6309 32.3398C24.4746 32.7266 24.3965 33.1992 24.3965 33.7578C24.3965 34.3164 24.4746 34.791 24.6309 35.1816C24.791 35.5684 25.0195 35.8633 25.3164 36.0664C25.6172 36.2656 25.9746 36.3652 26.3887 36.3652C26.8066 36.3652 27.1641 36.2656 27.4609 36.0664C27.7617 35.8633 27.9902 35.5684 28.1465 35.1816C28.3066 34.791 28.3867 34.3164 28.3867 33.7578ZM31.6035 29.5156H35.0723C35.7012 29.5156 36.248 29.6387 36.7129 29.8848C37.1777 30.127 37.5352 30.4707 37.7852 30.916C38.0352 31.3574 38.1602 31.8652 38.1602 32.4395C38.1602 33.0215 38.0312 33.5312 37.7734 33.9688C37.5195 34.4023 37.1562 34.7402 36.6836 34.9824C36.2109 35.2207 35.6543 35.3398 35.0137 35.3398H32.8516V33.7578H34.6562C34.9648 33.7578 35.2266 33.7051 35.4414 33.5996C35.6562 33.4902 35.8184 33.3379 35.9277 33.1426C36.0371 32.9434 36.0918 32.709 36.0918 32.4395C36.0918 32.1699 36.0371 31.9375 35.9277 31.7422C35.8184 31.5469 35.6562 31.3965 35.4414 31.291C35.2305 31.1855 34.9668 31.1328 34.6504 31.1328H33.5957V38H31.6035V29.5156Z" fill="white"/>
</svg>
