<svg width="20" height="20" viewBox="0 0 20 20" fill="none" xmlns="http://www.w3.org/2000/svg">
<path d="M16.6667 2H3.33333C2.97971 2 2.64057 2.14048 2.39052 2.39052C2.14048 2.64057 2 2.97971 2 3.33333V16.6667C2 17.0203 2.14048 17.3594 2.39052 17.6095C2.64057 17.8595 2.97971 18 3.33333 18H16.6667C17.0203 18 17.3594 17.8595 17.6095 17.6095C17.8595 17.3594 18 17.0203 18 16.6667V3.33333C18 2.97971 17.8595 2.64057 17.6095 2.39052C17.3594 2.14048 17.0203 2 16.6667 2ZM15.3333 14.6667H4.66667C4.48986 14.6667 4.32029 14.5964 4.19526 14.4714C4.07024 14.3464 4 14.1768 4 14C4 13.8232 4.07024 13.6536 4.19526 13.5286C4.32029 13.4036 4.48986 13.3333 4.66667 13.3333H15.3333C15.5101 13.3333 15.6797 13.4036 15.8047 13.5286C15.9298 13.6536 16 13.8232 16 14C16 14.1768 15.9298 14.3464 15.8047 14.4714C15.6797 14.5964 15.5101 14.6667 15.3333 14.6667ZM15.3333 10.6667H4.66667C4.48986 10.6667 4.32029 10.5964 4.19526 10.4714C4.07024 10.3464 4 10.1768 4 10C4 9.82319 4.07024 9.65362 4.19526 9.5286C4.32029 9.40357 4.48986 9.33333 4.66667 9.33333H15.3333C15.5101 9.33333 15.6797 9.40357 15.8047 9.5286C15.9298 9.65362 16 9.82319 16 10C16 10.1768 15.9298 10.3464 15.8047 10.4714C15.6797 10.5964 15.5101 10.6667 15.3333 10.6667ZM15.3333 6.66667H4.66667C4.48986 6.66667 4.32029 6.59643 4.19526 6.4714C4.07024 6.34638 4 6.17681 4 6C4 5.82319 4.07024 5.65362 4.19526 5.5286C4.32029 5.40357 4.48986 5.33333 4.66667 5.33333H15.3333C15.5101 5.33333 15.6797 5.40357 15.8047 5.5286C15.9298 5.65362 16 5.82319 16 6C16 6.17681 15.9298 6.34638 15.8047 6.4714C15.6797 6.59643 15.5101 6.66667 15.3333 6.66667Z" fill="#4C71F5"/>
</svg>
