<svg width="120" height="120" viewBox="0 0 120 120" fill="none" xmlns="http://www.w3.org/2000/svg">
<path d="M60 0C48.1331 0 36.5328 3.51894 26.6658 10.1118C16.7989 16.7047 9.10851 26.0754 4.56725 37.039C0.0259972 48.0026 -1.1622 60.0665 1.15291 71.7054C3.46802 83.3443 9.18247 94.0352 17.5736 102.426C25.9648 110.818 36.6557 116.532 48.2946 118.847C59.9335 121.162 71.9974 119.974 82.961 115.433C93.9246 110.891 103.295 103.201 109.888 93.3342C116.481 83.4672 120 71.8669 120 60C119.983 44.0922 113.656 28.8407 102.408 17.5921C91.1593 6.3436 75.9078 0.016799 60 0Z" fill="#D3E0F8" fill-opacity="0.8"/>
<path d="M86.3419 49.4195L54.0342 81.7271C53.6055 82.1563 53.0965 82.4967 52.5362 82.729C51.9759 82.9612 51.3753 83.0808 50.7688 83.0808C50.1623 83.0808 49.5617 82.9612 49.0014 82.729C48.4411 82.4967 47.932 82.1563 47.5034 81.7271L33.6573 67.881C32.7912 67.015 32.3047 65.8404 32.3047 64.6156C32.3047 63.3909 32.7912 62.2163 33.6573 61.3502C34.5233 60.4842 35.6979 59.9977 36.9226 59.9977C38.1474 59.9977 39.322 60.4842 40.188 61.3502L50.7688 71.9368L79.8111 42.8887C80.2399 42.4599 80.749 42.1197 81.3093 41.8877C81.8695 41.6556 82.47 41.5361 83.0765 41.5361C83.6829 41.5361 84.2834 41.6556 84.8437 41.8877C85.404 42.1197 85.913 42.4599 86.3419 42.8887C86.7707 43.3175 87.1108 43.8266 87.3429 44.3869C87.575 44.9471 87.6944 45.5476 87.6944 46.1541C87.6944 46.7605 87.575 47.361 87.3429 47.9213C87.1108 48.4816 86.7707 48.9907 86.3419 49.4195Z" fill="#4C71F5"/>
</svg>
