<svg width="18" height="18" viewBox="0 0 18 18" fill="none" xmlns="http://www.w3.org/2000/svg">
<path fill-rule="evenodd" clip-rule="evenodd" d="M8.25 12.75C8.84095 12.75 9.42611 12.6336 9.97208 12.4075C10.518 12.1813 11.0141 11.8498 11.432 11.432C11.8498 11.0141 12.1813 10.518 12.4075 9.97208C12.6336 9.42611 12.75 8.84095 12.75 8.25C12.75 7.65905 12.6336 7.07389 12.4075 6.52792C12.1813 5.98196 11.8498 5.48588 11.432 5.06802C11.0141 4.65016 10.518 4.31869 9.97208 4.09254C9.42611 3.8664 8.84095 3.75 8.25 3.75C7.05653 3.75 5.91193 4.22411 5.06802 5.06802C4.22411 5.91193 3.75 7.05653 3.75 8.25C3.75 9.44347 4.22411 10.5881 5.06802 11.432C5.91193 12.2759 7.05653 12.75 8.25 12.75ZM8.25 14.25C9.8413 14.25 11.3674 13.6179 12.4926 12.4926C13.6179 11.3674 14.25 9.8413 14.25 8.25C14.25 6.6587 13.6179 5.13258 12.4926 4.00736C11.3674 2.88214 9.8413 2.25 8.25 2.25C6.6587 2.25 5.13258 2.88214 4.00736 4.00736C2.88214 5.13258 2.25 6.6587 2.25 8.25C2.25 9.8413 2.88214 11.3674 4.00736 12.4926C5.13258 13.6179 6.6587 14.25 8.25 14.25Z" fill="#313946"/>
<path fill-rule="evenodd" clip-rule="evenodd" d="M11.49 11.4677C11.6312 11.3276 11.8222 11.2493 12.021 11.25C12.2199 11.2507 12.4104 11.3304 12.5505 11.4715L15.5318 14.4715C15.668 14.6133 15.7431 14.803 15.7409 14.9997C15.7387 15.1963 15.6592 15.3842 15.5198 15.5229C15.3803 15.6616 15.1919 15.74 14.9953 15.7411C14.7986 15.7422 14.6093 15.666 14.4683 15.529L11.487 12.529C11.3468 12.3879 11.2684 12.197 11.2689 11.9981C11.2695 11.7992 11.349 11.6087 11.49 11.4685V11.4677Z" fill="black"/>
</svg>
